<svg width="74" height="63" viewBox="0 0 74 63" fill="none" xmlns="http://www.w3.org/2000/svg">
<path d="M66.2962 11.6006C57.7062 2.60062 44.2962 -0.969378 31.9862 0.870622C20.9862 2.50062 7.50623 7.69062 5.74623 27.5706C3.98623 47.4506 18.5862 60.3206 39.0162 62.5706C59.4462 64.8206 68.0162 52.3206 71.3962 46.0806C74.7762 39.8406 74.9262 20.6606 66.2962 11.6006Z" fill="#EBCE0E"/>
<path d="M72.466 24.1504C72.466 24.6804 72.466 25.2104 72.466 25.7404C72.514 29.6364 71.9401 33.5152 70.766 37.2304C68.5001 43.4703 64.1619 48.7439 58.476 52.1704C52.8018 55.5567 46.3603 57.4458 39.756 57.6604C30.9835 58.1695 22.2823 55.8222 14.956 50.9704C13.3267 49.8447 11.8007 48.5763 10.396 47.1804C16.096 55.7804 26.456 61.1804 39.036 62.5804C59.466 64.8204 68.036 52.3304 71.416 46.0904C73.616 42.0604 74.426 32.7104 72.466 24.1504Z" fill="#E09F00"/>
<path d="M29.1462 28.8105C28.3777 28.0408 27.401 27.5125 26.3362 27.2905C25.5379 27.0959 24.7045 27.0959 23.9062 27.2905C23.3764 27.4229 22.8803 27.6649 22.4497 28.0007C22.0191 28.3366 21.6636 28.7589 21.4062 29.2405C21.0861 29.8338 20.9536 30.5103 21.0262 31.1805C21.1527 31.9184 21.5307 32.5898 22.0962 33.0805C22.2362 33.2105 22.3762 33.3105 22.5262 33.4205C22.3562 33.5605 22.1862 33.7005 22.0162 33.8705C21.7744 34.1167 21.5689 34.3961 21.4062 34.7005C21.2446 35.0145 21.1333 35.352 21.0762 35.7005C20.9721 36.3003 21.0063 36.9159 21.1762 37.5005C21.3253 38.0726 21.6202 38.5962 22.0321 39.0204C22.4439 39.4445 22.9588 39.7546 23.5262 39.9205C24.3631 40.1142 25.2382 40.0621 26.0462 39.7705C27.0431 39.4886 27.9789 39.024 28.8062 38.4005C29.3962 37.8805 29.5162 37.4005 29.3862 37.2905C29.2562 37.1805 28.8762 37.2905 28.2762 37.4205C27.6762 37.5505 26.7762 37.6605 25.6262 37.7905C25.179 37.8593 24.7216 37.8146 24.2962 37.6605C24.1452 37.5805 24.0171 37.4631 23.9243 37.3196C23.8315 37.176 23.7771 37.0111 23.7662 36.8405C23.7236 36.636 23.7236 36.425 23.7662 36.2205C23.8662 35.9705 23.7662 36.0605 24.0262 35.8405C24.5837 35.3797 25.2031 34.9993 25.8662 34.7105H25.9262C25.9262 34.7105 27.5662 34.2405 27.5762 33.4205C27.5862 32.6005 25.8562 32.0605 25.8562 32.0605C25.1914 31.8182 24.565 31.4814 23.9962 31.0605C23.9153 30.9989 23.8415 30.9285 23.7762 30.8505C23.7724 30.8173 23.7724 30.7837 23.7762 30.7505C23.7796 30.6683 23.7965 30.5872 23.8262 30.5105C23.8991 30.3221 24.0117 30.1516 24.1562 30.0105C24.3084 29.8604 24.4884 29.7415 24.6862 29.6605C25.1469 29.4771 25.6407 29.3919 26.1362 29.4105C28.2462 29.4105 29.3862 30.3305 29.6862 30.0705C29.7562 29.8305 29.6662 29.3905 29.1462 28.8105Z" fill="#3F3F5B"/>
<path d="M23.7462 23.2702C23.3762 23.4402 22.7462 22.8802 21.8662 22.1702C20.7849 21.2762 19.5426 20.5973 18.2062 20.1702C16.8739 19.8057 15.4778 19.7374 14.1162 19.9702C13.0162 20.1302 12.2362 20.3802 11.9762 20.0602C11.7162 19.7402 12.1062 18.8902 13.3662 18.0602C14.2114 17.566 15.1497 17.2523 16.1221 17.1387C17.0945 17.0251 18.0799 17.1141 19.0162 17.4002C20.886 17.9471 22.4706 19.1982 23.4362 20.8902C24.1162 22.1802 24.0862 23.1202 23.7462 23.2702Z" fill="#3F3F5B"/>
<path d="M50.4962 26.11C50.2162 25.86 50.4962 24.96 51.4962 23.94C52.9246 22.6177 54.8101 21.9008 56.7562 21.94C57.7345 21.9477 58.7007 22.1578 59.5939 22.5571C60.4871 22.9563 61.288 23.5361 61.9462 24.26C62.9462 25.4 63.0062 26.37 62.6862 26.56C62.3662 26.75 61.6862 26.31 60.6862 25.83C59.4426 25.2066 58.0768 24.8652 56.6862 24.83C55.2784 24.845 53.8865 25.1302 52.5862 25.67C51.5362 26.03 50.7962 26.38 50.4962 26.11Z" fill="#3F3F5B"/>
<path d="M18.5461 25.4302C17.9194 25.1746 17.2478 25.0474 16.571 25.056C15.8943 25.0645 15.2261 25.2088 14.6061 25.4802C11.8961 26.4802 10.4261 29.9702 10.4261 29.9702C10.1804 28.8871 9.863 27.8214 9.47611 26.7802C9.12069 25.9683 8.54342 25.2732 7.81061 24.7746C7.07779 24.2761 6.21918 23.9945 5.33347 23.9621C4.44776 23.9298 3.57088 24.1479 2.80362 24.5916C2.03636 25.0353 1.40987 25.6864 0.996125 26.4702C-0.203875 28.7402 0.626101 31.5502 1.8461 33.8002C3.58232 36.5481 5.51751 39.1651 7.63611 41.6302C11.6361 40.0802 16.9661 36.5302 19.1261 32.7802C19.8785 31.6144 20.3192 30.275 20.4061 28.8902C20.4374 28.1993 20.281 27.5128 19.9535 26.9036C19.626 26.2944 19.1397 25.7853 18.5461 25.4302Z" fill="#FF2936"/>
<path d="M18.5461 25.4306C18.1007 25.2083 17.6135 25.0823 17.1161 25.0605C17.857 26.112 18.2104 27.3878 18.1161 28.6705C17.9087 30.4562 17.1782 32.1407 16.0164 33.5125C14.8546 34.8842 13.3133 35.882 11.5862 36.3806C9.95142 36.9066 8.19958 36.9496 6.54102 36.5043C4.88245 36.0591 3.38765 35.1446 2.23615 33.8706C1.76438 33.2711 1.36181 32.6203 1.03613 31.9306C1.27395 32.5736 1.55803 33.1986 1.88614 33.8006C3.62242 36.5484 5.55761 39.1654 7.67615 41.6306C11.6761 40.0806 17.0061 36.5305 19.1661 32.7805C19.9185 31.6147 20.3593 30.2754 20.4461 28.8905C20.4734 28.1957 20.311 27.5065 19.9762 26.8969C19.6415 26.2874 19.1471 25.7805 18.5461 25.4306Z" fill="#BF101F"/>
</svg>
