<svg width="70" height="64" viewBox="0 0 70 64" fill="none" xmlns="http://www.w3.org/2000/svg">
<path d="M60.9461 12.6006C52.3561 3.60062 38.9461 0.0306222 26.6361 1.87062C15.6361 3.50062 2.15613 8.69062 0.396129 28.5706C-1.36387 48.4506 13.2361 61.3206 33.6661 63.5706C54.0961 65.8206 62.6661 53.3206 66.0561 47.0806C69.4461 40.8406 69.5361 21.6606 60.9461 12.6006Z" fill="#EBCE0E"/>
<path d="M67.0759 25.1504C67.0759 25.6804 67.0759 26.2104 67.0759 26.7404C67.1239 30.6364 66.55 34.5152 65.3758 38.2304C63.1099 44.4703 58.7718 49.7439 53.0859 53.1704C47.4117 56.5567 40.9702 58.4458 34.3659 58.6604C25.5934 59.1695 16.8922 56.8222 9.56586 51.9704C7.93657 50.8447 6.41057 49.5763 5.00586 48.1804C10.7059 56.7804 21.0659 62.1804 33.6459 63.5804C54.0759 65.8204 62.6459 53.3304 66.0259 47.0904C68.2159 43.0604 69.0359 33.7104 67.0759 25.1504Z" fill="#E09F00"/>
<path d="M19.1763 30.3898C19.5463 30.3898 19.8363 31.5998 19.3463 33.4598C19.0307 34.6405 18.3731 35.7016 17.4563 36.5098C16.8385 37.0379 16.1 37.4054 15.3063 37.5798C14.4846 37.7352 13.6394 37.7147 12.8263 37.5198C11.3226 37.1672 9.98921 36.3006 9.05627 35.0698C8.36149 34.1505 7.8706 33.0937 7.61628 31.9698C7.20628 30.1198 7.48628 28.9698 7.86628 28.9198C8.24628 28.8698 8.70627 29.8598 9.49627 31.2498C10.2863 32.6398 11.5463 34.3298 13.4963 34.7398C13.8917 34.8643 14.3094 34.9011 14.7205 34.8475C15.1316 34.794 15.526 34.6514 15.8763 34.4298C16.5334 33.9587 17.0851 33.3559 17.4963 32.6598C18.2963 31.3298 18.7763 30.3298 19.1763 30.3898Z" fill="#3F3F5B"/>
<path d="M48.5563 30.3898C48.9563 30.3298 49.4062 31.3298 50.2362 32.6598C50.6533 33.3579 51.2119 33.9608 51.8762 34.4298C52.2265 34.6514 52.621 34.794 53.032 34.8475C53.4431 34.9011 53.8609 34.8643 54.2562 34.7398C56.1762 34.3398 57.4362 32.6298 58.2562 31.2498C59.0762 29.8698 59.4862 28.8698 59.8862 28.9198C60.2862 28.9698 60.5462 30.1298 60.1362 31.9698C59.8819 33.0937 59.391 34.1505 58.6962 35.0698C57.7633 36.3006 56.4299 37.1671 54.9262 37.5198C54.1131 37.7144 53.2679 37.7348 52.4462 37.5798C51.6525 37.4054 50.914 37.0379 50.2962 36.5098C49.3794 35.7016 48.7218 34.6405 48.4062 33.4598C47.8962 31.5998 48.1863 30.4298 48.5563 30.3898Z" fill="#3F3F5B"/>
<path d="M27.0662 20.1598C29.2476 15.0569 31.7493 10.0971 34.5562 5.30975C32.2331 5.61053 29.9364 6.0886 27.6862 6.73976L26.3862 1.78976C29.2038 1.04582 32.0877 0.580251 34.9962 0.399765C36.4162 0.299765 37.8862 0.259766 39.2562 0.259766L40.3862 4.85976C37.4906 9.60041 34.8663 14.5016 32.5262 19.5398L34.9562 19.3798C37.1233 19.2373 39.2964 19.2106 41.4662 19.2998L41.1262 23.9998C39.5462 23.9998 37.5062 23.9398 35.2762 24.0898C32.9354 24.3255 30.6155 24.7366 28.3362 25.3198L27.0662 20.1598Z" fill="#1F1F40"/>
<path d="M42.896 16.3504C45.3089 12.6905 47.9509 9.18689 50.806 5.86042C48.9582 5.76898 47.1061 5.81914 45.266 6.01043L44.946 2.01043C47.238 1.82864 49.5424 1.87217 51.826 2.14042C52.946 2.26042 54.096 2.43043 55.156 2.63043L55.386 6.37043C52.47 9.64642 49.7423 13.0853 47.216 16.6704L49.126 16.8804C50.8299 17.0734 52.5223 17.3572 54.196 17.7304L53.266 21.3404C52.046 21.0804 50.466 20.7804 48.716 20.5904C46.8653 20.4512 45.0067 20.4512 43.156 20.5904L42.896 16.3504Z" fill="#1F1F40"/>
<path d="M56.7162 14.4005C59.3939 12.0179 62.2196 9.80678 65.1761 7.78046C63.7351 7.31847 62.2608 6.96745 60.7661 6.73047L61.3661 3.48047C63.2158 3.81891 65.0279 4.33805 66.7762 5.03046C67.6362 5.36046 68.5062 5.74047 69.3062 6.12047L68.6961 9.12047C65.7037 11.0957 62.8257 13.2391 60.0761 15.5405L61.5461 16.1105C62.8528 16.6219 64.1313 17.2028 65.3761 17.8505L63.8861 20.5005C62.9761 20.0405 61.7861 19.5005 60.4461 18.9505C59.0144 18.4478 57.547 18.0533 56.0562 17.7705L56.7162 14.4005Z" fill="#1F1F40"/>
<path d="M38.4161 39.3903C38.5661 40.1603 37.0661 41.1003 35.0361 41.2003C33.0061 41.3003 31.4161 40.5303 31.4861 39.7503C31.5561 38.9703 33.0761 38.4503 34.8861 38.3503C36.6961 38.2503 38.2961 38.6103 38.4161 39.3903Z" fill="#3F3F5B"/>
</svg>
