<svg width="69" height="63" viewBox="0 0 69 63" fill="none" xmlns="http://www.w3.org/2000/svg">
<path d="M61.2835 11.1993C52.6935 2.19926 39.2835 -1.37075 26.9735 0.469254C15.9735 2.09925 2.49353 7.28926 0.733532 27.1693C-1.02647 47.0493 13.5735 59.9193 34.0035 62.1693C54.4335 64.4193 63.0035 51.9193 66.3835 45.6793C69.7635 39.4393 69.8735 20.2593 61.2835 11.1993Z" fill="#EBCE0E"/>
<path d="M67.4138 23.7891C67.4138 24.3191 67.4138 24.8491 67.4138 25.3791C67.4618 29.2751 66.8879 33.1539 65.7138 36.8691C63.4479 43.109 59.1097 48.3826 53.4238 51.8091C47.7457 55.1935 41.3006 57.0792 34.6938 57.2891C25.9213 57.7982 17.2201 55.4509 9.89375 50.5991C8.2679 49.4729 6.74525 48.2046 5.34375 46.8091C11.0437 55.4091 21.4037 60.8091 33.9837 62.2091C54.4137 64.4491 62.9838 51.9591 66.3638 45.7191C68.5538 41.6991 69.3738 32.3591 67.4138 23.7891Z" fill="#E09F00"/>
<path d="M43.0434 27.9092C43.2934 28.1792 42.6634 29.3692 41.0434 30.8392C40.0585 31.7053 38.9409 32.4075 37.7334 32.9192C36.2214 33.5638 34.597 33.9036 32.9534 33.9192C31.2986 33.9468 29.6565 33.6265 28.1334 32.9792C26.9036 32.4498 25.7867 31.6894 24.8434 30.7392C23.2734 29.1292 22.8434 27.7892 23.1434 27.5692C23.4434 27.3492 24.4634 28.1692 26.1434 29.1592C28.1899 30.4363 30.5614 31.096 32.9734 31.0592C35.4233 31.0179 37.8261 30.3794 39.9734 29.1992C41.6334 28.2692 42.7734 27.6092 43.0434 27.9092Z" fill="#3F3F5B"/>
<path d="M12.0465 26.7127C13.2889 26.6919 14.2713 25.1888 14.2405 23.3555C14.2098 21.5221 13.1777 20.0528 11.9352 20.0736C10.6928 20.0945 9.71045 21.5975 9.74117 23.4309C9.77189 25.2642 10.804 26.7335 12.0465 26.7127Z" fill="#3F3F5B"/>
<path d="M48.1835 25.9296C47.8735 25.7296 47.9835 24.7796 48.8635 23.5496C49.3958 22.8153 50.0774 22.2018 50.8635 21.7496C51.9566 21.1352 53.2291 20.9196 54.4635 21.1396C55.6561 21.3771 56.746 21.9779 57.5835 22.8596C58.1924 23.4879 58.6955 24.2106 59.0735 24.9996C59.6835 26.2996 59.7635 27.1896 59.4335 27.3996C59.1035 27.6096 58.3735 27.0596 57.4335 26.1896C56.4935 25.3196 55.2635 24.1896 53.9435 23.9496C52.612 23.8309 51.2836 24.2084 50.2135 25.0096C49.2335 25.6496 48.5235 26.1996 48.1835 25.9296Z" fill="#3F3F5B"/>
</svg>
