<svg width="69" height="64" viewBox="0 0 69 64" fill="none" xmlns="http://www.w3.org/2000/svg">
<path d="M61.2835 11.7695C52.6935 2.76955 39.2835 -0.800431 26.9735 1.03957C15.9735 2.66957 2.49353 7.85955 0.733532 27.7395C-1.02647 47.6195 13.5735 60.4896 34.0035 62.7396C54.4335 64.9895 63.0035 52.4896 66.3835 46.2496C69.7635 40.0096 69.8735 20.7896 61.2835 11.7695Z" fill="#EBCE0E"/>
<path d="M67.4138 24.3203C67.4138 24.8503 67.4138 25.3803 67.4138 25.9103C67.4618 29.8063 66.8879 33.6851 65.7138 37.4003C63.4479 43.6402 59.1097 48.9138 53.4238 52.3403C47.7476 55.7318 41.3024 57.6244 34.6938 57.8403C25.9213 58.3494 17.2201 56.0022 9.89375 51.1503C8.26786 50.0242 6.74521 48.7558 5.34375 47.3603C11.0437 55.9603 21.4037 61.3603 33.9837 62.7603C54.4137 65.0003 62.9838 52.5103 66.3638 46.2703C68.5538 42.2303 69.3738 32.8403 67.4138 24.3203Z" fill="#E09F00"/>
<path d="M14.6026 25.9079C14.6861 24.0762 13.7474 22.5455 12.5061 22.4889C11.2647 22.4323 10.1907 23.8713 10.1072 25.703C10.0237 27.5347 10.9624 29.0654 12.2037 29.122C13.4451 29.1786 14.5191 27.7396 14.6026 25.9079Z" fill="#3F3F5B"/>
<path d="M58.8701 29.3474C58.9618 27.5138 58.0287 25.977 56.7861 25.9149C55.5435 25.8528 54.4618 27.2888 54.3701 29.1224C54.2784 30.956 55.2115 32.4928 56.4541 32.5549C57.6967 32.617 58.7784 31.181 58.8701 29.3474Z" fill="#3F3F5B"/>
<path d="M32.2792 42.7044C32.3489 41.9177 30.6304 41.1228 28.4408 40.9289C26.2513 40.7351 24.4199 41.2156 24.3502 42.0023C24.2806 42.789 25.9991 43.5839 28.1886 43.7778C30.3781 43.9717 32.2096 43.4911 32.2792 42.7044Z" fill="#3F3F5B"/>
<path d="M63.7934 39.2989C64.1061 35.7394 59.6186 32.4373 53.7703 31.9236C47.9221 31.4099 42.9277 33.879 42.615 37.4386C42.3023 40.9982 46.7898 44.3002 52.638 44.8139C58.4863 45.3277 63.4807 42.8585 63.7934 39.2989Z" fill="url(#paint0_linear)"/>
<path d="M14.0394 44.4769C19.8907 43.9989 24.3982 40.7243 24.1073 37.1629C23.8164 33.6015 18.8371 31.1019 12.9858 31.5799C7.13453 32.0578 2.62695 35.3324 2.91788 38.8938C3.2088 42.4553 8.18806 44.9549 14.0394 44.4769Z" fill="url(#paint1_linear)"/>
<path d="M26.7433 51.4699C27.4533 47.9099 29.5333 44.2599 28.2333 40.8699C27.9205 39.9579 27.2835 39.1927 26.4433 38.7199C25.5718 38.3349 24.5963 38.2539 23.6733 38.4898C22.5068 38.7681 21.4098 39.2826 20.4501 40.0015C19.4903 40.7205 18.6882 41.6286 18.0933 42.6698C16.9151 44.7645 16.3211 47.1372 16.3733 49.5399C16.3733 54.0899 17.9933 58.8099 21.2233 60.9099C24.4533 63.0099 30.7233 62.2899 30.7233 62.2899C28.2033 59.0799 25.9533 55.4699 26.7433 51.4699Z" fill="#EBCE0E"/>
<path d="M26.7433 51.4694C27.4533 47.9094 29.5333 44.2594 28.2333 40.8694C27.9206 39.9575 27.2835 39.1923 26.4433 38.7194C25.5721 38.3337 24.5963 38.2527 23.6733 38.4894C22.164 38.8147 20.7774 39.56 19.6733 40.6394C20.2698 40.4129 20.9059 40.3097 21.5433 40.336C22.1807 40.3623 22.8062 40.5175 23.382 40.7923C23.9577 41.0671 24.4718 41.4557 24.8931 41.9348C25.3145 42.4138 25.6343 42.9733 25.8333 43.5794C26.1938 45.1524 26.1938 46.7865 25.8333 48.3594C25.315 51.1289 25.5252 53.9856 26.4433 56.6494C27.1258 58.263 28.1937 59.6846 29.5533 60.7894C27.5833 57.9594 26.0733 54.8394 26.7433 51.4694Z" fill="#E09F00"/>
<defs>
<linearGradient id="paint0_linear" x1="53.8645" y1="32.0015" x2="52.5345" y2="44.9915" gradientUnits="userSpaceOnUse">
<stop stop-color="#8B9A00" stop-opacity="0.4"/>
<stop offset="1" stop-color="#EBCE0E"/>
</linearGradient>
<linearGradient id="paint1_linear" x1="2823.6" y1="4309.04" x2="2842.12" y2="4478.24" gradientUnits="userSpaceOnUse">
<stop stop-color="#8B9A00" stop-opacity="0.4"/>
<stop offset="1" stop-color="#EBCE0E"/>
</linearGradient>
</defs>
</svg>
