<svg width="69" height="63" viewBox="0 0 69 63" fill="none" xmlns="http://www.w3.org/2000/svg">
<path d="M61.1239 11.1993C52.5339 2.19926 39.1239 -1.37075 26.8139 0.469254C15.8139 2.09925 2.33386 7.28926 0.573864 27.1693C-1.18614 47.0493 13.4139 59.9193 33.8439 62.1693C54.2739 64.4193 62.8439 51.9193 66.2339 45.6793C69.6239 39.4393 69.6938 20.2593 61.1239 11.1993Z" fill="#EBCE0E"/>
<path d="M67.2538 23.7891C67.2538 24.3191 67.2538 24.8491 67.2538 25.3791C67.3017 29.2751 66.7278 33.1538 65.5538 36.8691C63.2879 43.109 58.9497 48.3826 53.2638 51.8091C47.5858 55.1935 41.1407 57.0792 34.5338 57.2891C25.7614 57.7982 17.0601 55.4509 9.73383 50.5991C8.1045 49.4734 6.5785 48.205 5.17383 46.8091C10.8738 55.4091 21.2338 60.8091 33.8138 62.2091C54.2438 64.4491 62.8138 51.9591 66.1938 45.7191C68.3938 41.6991 69.2138 32.3591 67.2538 23.7891Z" fill="#E09F00"/>
<path d="M47.9439 19.0995C50.9439 23.6595 45.5539 35.9895 31.6539 35.9195C17.7539 35.8495 15.9639 21.1895 18.3539 18.2495C21.6139 14.2495 28.4639 18.6395 33.5739 18.5395C38.6839 18.4395 44.9539 14.6095 47.9439 19.0995Z" fill="#3F3F5B"/>
<path d="M28.194 23.709C25.1754 25.7874 22.9426 28.8196 21.854 32.319C24.5218 34.7518 28.0357 36.0439 31.644 35.919C41.644 35.919 47.214 29.649 48.474 24.389C47.3067 23.5096 46.0375 22.7743 44.694 22.199C42.0289 21.0872 39.1324 20.6436 36.2567 20.9068C33.3809 21.1699 30.6131 22.1319 28.194 23.709Z" fill="#FF2936"/>
<path d="M48.6938 17.0292C48.3838 16.8292 48.4938 15.8792 49.3738 14.6492C49.906 13.9149 50.5876 13.3014 51.3738 12.8492C52.4668 12.2348 53.7393 12.0192 54.9738 12.2392C56.1664 12.4767 57.2563 13.0775 58.0938 13.9592C58.7419 14.579 59.2826 15.3022 59.6938 16.0992C60.3038 17.3992 60.3838 18.2892 60.0538 18.4992C59.7238 18.7092 58.9938 18.1592 58.0538 17.2892C57.1138 16.4192 55.8838 15.2892 54.5638 15.0492C53.2323 14.9305 51.9039 15.308 50.8338 16.1092C49.7738 16.7492 49.0638 17.2592 48.6938 17.0292Z" fill="#3F3F5B"/>
<path d="M20.0637 14.5692C19.7237 14.7992 19.0638 14.2892 17.9838 13.6492C16.9137 12.848 15.5853 12.4705 14.2538 12.5892C12.9238 12.7992 11.6938 13.9792 10.7638 14.8292C9.83376 15.6792 9.11376 16.2492 8.76376 16.0392C8.41376 15.8292 8.51375 14.9392 9.12375 13.6392C9.50158 12.8501 10.0048 12.1274 10.6138 11.4992C11.4406 10.6247 12.5155 10.0244 13.6938 9.77924C14.9282 9.55925 16.2007 9.77487 17.2938 10.3892C18.0799 10.8415 18.7615 11.4549 19.2938 12.1892C20.2638 13.4092 20.3737 14.3592 20.0637 14.5692Z" fill="#3F3F5B"/>
</svg>
