<svg width="69" height="63" viewBox="0 0 69 63" fill="none" xmlns="http://www.w3.org/2000/svg">
<path d="M61.514 11.1992C52.924 2.19924 39.514 -1.37074 27.204 0.469256C16.204 2.09926 2.724 7.28924 0.964 27.1692C-0.796 47.0492 13.804 59.9192 34.234 62.1692C54.664 64.4192 63.234 51.9193 66.614 45.6792C69.994 39.4392 70.104 20.2192 61.514 11.1992Z" fill="#EBCE0E"/>
<path d="M67.634 23.749C67.634 24.279 67.634 24.809 67.634 25.339C67.682 29.2351 67.1081 33.1138 65.934 36.829C63.6809 43.0613 59.3612 48.3338 53.694 51.769C48.016 55.1535 41.5708 57.0392 34.964 57.249C26.1915 57.7581 17.4903 55.4109 10.164 50.559C8.53465 49.4334 7.00864 48.165 5.604 46.769C11.304 55.369 21.664 60.769 34.244 62.169C54.674 64.409 63.244 51.919 66.624 45.679C68.784 41.659 69.604 32.309 67.634 23.749Z" fill="#E09F00"/>
<path d="M14.8155 20.5456C15.0355 18.7252 14.2137 17.1287 12.98 16.9796C11.7464 16.8305 10.568 18.1854 10.348 20.0057C10.128 21.8261 10.9498 23.4226 12.1835 23.5717C13.4171 23.7207 14.5955 22.3659 14.8155 20.5456Z" fill="#3F3F5B"/>
<path d="M59.1856 26.4567C59.4056 24.6364 58.5838 23.0398 57.3501 22.8908C56.1165 22.7417 54.9381 24.0965 54.7181 25.9169C54.4981 27.7372 55.3199 29.3337 56.5536 29.4828C57.7872 29.6319 58.9656 28.2771 59.1856 26.4567Z" fill="#3F3F5B"/>
<path d="M41.4141 26.1893C40.9541 23.8093 38.2941 18.2593 32.6441 18.6193C26.9941 18.9793 24.1941 22.5293 23.5741 25.1193C22.9541 27.7093 22.6741 32.6092 25.6641 33.2892C28.6541 33.9692 29.7141 29.5992 32.1941 29.9192C34.6741 30.2392 35.6541 33.8392 38.5441 33.4192C41.4341 32.9992 42.0141 29.2893 41.4141 26.1893Z" fill="#3F3F5B"/>
<path d="M27.8839 27.9785C26.3812 29.2714 25.2752 30.9633 24.6938 32.8585C24.9921 33.0746 25.333 33.2246 25.6938 33.2985C28.6938 33.9785 29.7438 29.6085 32.2238 29.9285C34.7038 30.2485 35.6839 33.8485 38.5739 33.4285C41.4639 33.0085 42.0138 29.4285 41.4738 26.3585C40.3948 25.7729 39.2135 25.3995 37.9938 25.2585C36.2122 24.9863 34.3934 25.0875 32.6529 25.5558C30.9125 26.024 29.2884 26.8491 27.8839 27.9785Z" fill="#FF2936"/>
<path d="M26.9737 50.8986C27.6837 47.3386 29.7637 43.6886 28.4637 40.2986C28.151 39.3866 27.5139 38.6214 26.6738 38.1486C25.8023 37.7636 24.8267 37.6826 23.9037 37.9186C22.7373 38.1968 21.6403 38.7113 20.6805 39.4302C19.7208 40.1492 18.9186 41.0573 18.3237 42.0986C17.1456 44.1932 16.5516 46.5659 16.6037 48.9686C16.6037 53.5186 18.2238 58.2386 21.4538 60.3386C24.6838 62.4386 30.9538 61.7186 30.9538 61.7186C28.4238 58.5486 26.1737 54.8986 26.9737 50.8986Z" fill="#EBCE0E"/>
<path d="M45.1341 50.7091C43.2241 47.6191 40.0141 44.9191 40.0441 41.2891C40.0206 40.3249 40.3515 39.3856 40.9741 38.6491C41.6553 37.9862 42.5391 37.5707 43.4841 37.4691C44.6752 37.328 45.8825 37.4327 47.0315 37.7767C48.1804 38.1207 49.2466 38.6967 50.1641 39.4691C51.9976 41.0255 53.3791 43.0459 54.1641 45.3191C55.7441 49.5791 55.8741 54.5691 53.5741 57.6691C51.2741 60.7691 45.1442 62.2691 45.1442 62.2691C46.4242 58.3491 47.2741 54.1791 45.1341 50.7091Z" fill="#EBCE0E"/>
<path d="M26.9738 50.8986C27.6838 47.3386 29.7638 43.6886 28.4638 40.2986C28.1511 39.3866 27.514 38.6214 26.6738 38.1486C25.8024 37.7636 24.8268 37.6826 23.9038 37.9186C22.3945 38.2439 21.0078 38.9892 19.9038 40.0686C20.5002 39.8421 21.1364 39.7389 21.7738 39.7651C22.4112 39.7914 23.0367 39.9466 23.6125 40.2214C24.1882 40.4962 24.7023 40.8849 25.1236 41.3639C25.5449 41.8429 25.8648 42.4024 26.0638 43.0086C26.4239 44.5815 26.4239 46.2156 26.0638 47.7886C25.5454 50.5581 25.7557 53.4148 26.6738 56.0786C27.3563 57.6922 28.4241 59.1137 29.7838 60.2186C27.8138 57.3886 26.2938 54.2886 26.9738 50.8986Z" fill="#E09F00"/>
<path d="M46.5342 49.3289C46.0742 48.0889 45.2742 47.0089 44.7942 45.7789C44.3356 44.7226 44.1973 43.5549 44.3964 42.4207C44.5955 41.2866 45.1233 40.2358 45.9142 39.3989C46.6419 38.7731 47.5645 38.4196 48.5242 38.3989C46.9927 37.5828 45.2449 37.2646 43.5242 37.4889C42.5791 37.5905 41.6953 38.0059 41.0142 38.6689C40.3915 39.4054 40.0606 40.3447 40.0842 41.3089C40.0842 44.9389 43.2642 47.6389 45.1742 50.7289C46.1036 52.2844 46.5556 54.0787 46.4742 55.8889C47.1759 53.7616 47.1968 51.4686 46.5342 49.3289Z" fill="#E09F00"/>
<path d="M22.044 51.319C22.044 49.709 21.914 47.9791 20.914 46.7291C20.7743 46.5292 20.5963 46.3591 20.3903 46.2286C20.1843 46.0981 19.9544 46.0099 19.714 45.9691C19.4038 45.9538 19.0945 46.0156 18.814 46.1491C17.8893 46.5649 17.1219 47.2657 16.624 48.1491C16.624 48.4291 16.624 48.7091 16.624 48.9891C16.624 53.4491 18.184 58.0791 21.304 60.2291C22.0322 57.3188 22.2822 54.3095 22.044 51.319Z" fill="#F1DD58"/>
<path d="M53.3738 43.4893C52.8783 43.5043 52.4011 43.6798 52.0138 43.9893C51.7248 44.2697 51.5014 44.6105 51.3597 44.9874C51.2179 45.3643 51.1613 45.7679 51.1938 46.1693C51.273 46.9785 51.4406 47.7766 51.6938 48.5493C52.6021 52.2729 52.4145 56.1797 51.1538 59.7993C52.1012 59.2473 52.9385 58.5252 53.6238 57.6693C55.9238 54.5793 55.7938 49.5792 54.2138 45.3192C53.9715 44.6926 53.691 44.0815 53.3738 43.4893Z" fill="#F1DD58"/>
</svg>
