<svg width="69" height="63" viewBox="0 0 69 63" fill="none" xmlns="http://www.w3.org/2000/svg">
<path d="M60.8939 11.1993C52.3039 2.19926 38.8939 -1.37075 26.5839 0.469254C15.5839 2.09925 2.10388 7.28926 0.343883 27.1693C-1.41612 47.0493 13.1839 59.9193 33.6139 62.1693C54.0439 64.4193 62.6139 51.9193 65.9939 45.6793C69.3739 39.4393 69.4839 20.2593 60.8939 11.1993Z" fill="#EBCE0E"/>
<path d="M67.0238 23.7891C67.0238 24.3191 67.0238 24.8491 67.0238 25.3791C67.0719 29.2751 66.498 33.1539 65.3239 36.8691C63.0579 43.109 58.7198 48.3826 53.0338 51.8091C47.3558 55.1935 40.9107 57.0792 34.3038 57.2891C25.5314 57.7982 16.8301 55.4509 9.50385 50.5991C7.87456 49.4733 6.34855 48.205 4.94385 46.8091C10.6438 55.4091 21.0038 60.8091 33.5838 62.2091C54.0138 64.4491 62.5838 51.9591 65.9638 45.7191C68.1738 41.6991 68.9838 32.3591 67.0238 23.7891Z" fill="#E09F00"/>
<path d="M41.6039 28.0591C41.8739 28.3191 41.3739 29.4691 39.9439 30.9091C38.9641 31.8908 37.7948 32.663 36.5072 33.1787C35.2196 33.6944 33.8406 33.9429 32.4539 33.9091C30.9001 33.8902 29.3724 33.5066 27.9939 32.7891C26.8988 32.2133 25.9245 31.4325 25.1239 30.4891C23.8039 28.8891 23.5039 27.6491 23.8039 27.4891C24.1039 27.3291 25.0439 28.0491 26.4939 29.0491C28.2415 30.3218 30.333 31.0364 32.4939 31.0991C34.6878 31.0876 36.835 30.4643 38.6939 29.2991C40.2739 28.4191 41.3039 27.7691 41.6039 28.0591Z" fill="#3F3F5B"/>
<path d="M47.7939 25.9296C47.4839 25.7296 47.5939 24.7796 48.4739 23.5496C49.0061 22.8153 49.6877 22.2018 50.4739 21.7496C51.5669 21.1352 52.8394 20.9196 54.0739 21.1396C55.2665 21.3771 56.3564 21.9779 57.1939 22.8596C57.8064 23.487 58.313 24.2098 58.6939 24.9996C59.3039 26.2996 59.3838 27.1896 59.0538 27.3996C58.7238 27.6096 57.9938 27.0596 57.0538 26.1896C56.1138 25.3196 54.8839 24.1896 53.5639 23.9496C52.2323 23.8309 50.9039 24.2084 49.8339 25.0096C48.8439 25.6496 48.1339 26.1996 47.7939 25.9296Z" fill="#3F3F5B"/>
<path d="M19.1238 23.4696C18.7838 23.6996 18.1238 23.1896 17.0438 22.5496C15.9737 21.7484 14.6453 21.3709 13.3138 21.4896C11.9838 21.6996 10.7538 22.8796 9.82382 23.7296C8.89382 24.5796 8.17382 25.1496 7.82382 24.9396C7.47382 24.7296 7.57382 23.8396 8.18382 22.5396C8.56773 21.7491 9.07772 21.0263 9.69381 20.3996C10.5313 19.518 11.6212 18.9171 12.8138 18.6796C14.0482 18.4596 15.3208 18.6753 16.4138 19.2896C17.2 19.7419 17.8815 20.3553 18.4138 21.0896C19.3238 22.3196 19.4438 23.2596 19.1238 23.4696Z" fill="#3F3F5B"/>
<path d="M62.7773 34.1944C63.09 30.6349 58.6025 27.3328 52.7542 26.8191C46.906 26.3054 41.9115 28.7745 41.5989 32.3341C41.2862 35.8937 45.7737 39.1957 51.6219 39.7095C57.4702 40.2232 62.4646 37.754 62.7773 34.1944Z" fill="url(#paint0_linear)"/>
<path d="M12.9998 37.7113C18.8511 37.2333 23.3587 33.9587 23.0678 30.3973C22.7768 26.8359 17.7976 24.3362 11.9463 24.8142C6.09498 25.2922 1.5874 28.5668 1.87833 32.1282C2.16925 35.6896 7.14851 38.1892 12.9998 37.7113Z" fill="url(#paint1_linear)"/>
<defs>
<linearGradient id="paint0_linear" x1="52.841" y1="26.9062" x2="51.5109" y2="39.8962" gradientUnits="userSpaceOnUse">
<stop stop-color="#FF7986" stop-opacity="0.4"/>
<stop offset="1" stop-color="#EBCE0E"/>
</linearGradient>
<linearGradient id="paint1_linear" x1="4989.76" y1="675.78" x2="5007.85" y2="844.336" gradientUnits="userSpaceOnUse">
<stop stop-color="#FF7986" stop-opacity="0.4"/>
<stop offset="1" stop-color="#EBCE0E"/>
</linearGradient>
</defs>
</svg>
