<svg width="69" height="74" viewBox="0 0 69 74" fill="none" xmlns="http://www.w3.org/2000/svg">
<path d="M60.8939 21.7695C52.3039 12.7695 38.8939 9.19957 26.5839 11.0396C15.5839 12.6696 2.10388 17.8596 0.343883 37.7395C-1.41612 57.6195 13.1839 70.4896 33.6139 72.7396C54.0439 74.9895 62.6139 62.4896 65.9939 56.2496C69.3739 50.0096 69.4839 30.7896 60.8939 21.7695Z" fill="#7EB8FF"/>
<path d="M67.0241 34.3203C67.0241 34.8503 67.0241 35.3803 67.0241 35.9103C67.0721 39.8063 66.4983 43.6851 65.3241 47.4003C63.0582 53.6402 58.72 58.9138 53.0341 62.3403C47.3609 65.7301 40.9193 67.6227 34.3141 67.8403C25.5416 68.3494 16.8404 66.0022 9.51411 61.1503C7.88479 60.0246 6.35877 58.7563 4.9541 57.3603C10.6541 65.9603 21.0141 71.3603 33.5941 72.7603C54.0241 75.0003 62.5941 62.5103 65.9841 56.2703C68.1741 52.2303 68.9841 42.8403 67.0241 34.3203Z" fill="#3590FF"/>
<path d="M14.06 31.7883C14.0853 29.9548 13.0985 28.4547 11.856 28.4376C10.6135 28.4204 9.5857 29.8928 9.56042 31.7262C9.53514 33.5596 10.5219 35.0598 11.7644 35.0769C13.007 35.0941 14.0347 33.6217 14.06 31.7883Z" fill="#3F3F5B"/>
<path d="M57.8125 31.5023C57.8308 29.6688 56.8383 28.1723 55.5957 28.1598C54.3531 28.1474 53.3308 29.6238 53.3125 31.4573C53.2942 33.2909 54.2867 34.7874 55.5293 34.7998C56.7719 34.8123 57.7942 33.3359 57.8125 31.5023Z" fill="#3F3F5B"/>
<path d="M44.0741 36.2796C41.0741 35.7896 19.5641 35.5396 16.3241 38.1996C13.0841 40.8596 13.2441 44.1996 14.7541 46.3096C16.2641 48.4196 18.7541 49.6896 21.2041 50.6396C27.8566 53.3277 35.0744 54.3142 42.2042 53.5096C48.8242 52.7696 51.7841 50.1896 51.7841 45.2196C51.7841 40.2496 47.0441 36.7796 44.0741 36.2796Z" fill="white"/>
<path d="M49.5742 30.1602C48.7842 30.0802 48.8241 23.5302 49.2141 15.5002C49.6041 7.47021 50.2142 0.950195 51.0142 0.950195C51.8142 0.950195 52.4742 7.53021 52.0742 15.6502C51.6742 23.7702 50.3442 30.2402 49.5742 30.1602Z" fill="#C7E0FF"/>
<path d="M54.1737 2.11004C54.6837 2.41004 53.7937 4.87005 52.1737 7.59005L52.1237 7.68004L51.3537 8.99004L50.3537 7.83004C48.3537 5.37004 47.3537 2.94006 47.8137 2.63006C48.2737 2.32006 50.0337 4.13003 52.0037 6.45003L50.2637 6.59005L50.3137 6.50005C51.9437 3.78005 53.6937 1.84004 54.1737 2.11004Z" fill="#C7E0FF"/>
<path d="M46.3938 26.7003C45.9338 26.3303 47.1538 24.0303 49.1338 21.5503L49.1938 21.4703L50.1438 20.2803L50.9438 21.5703C52.6238 24.2903 53.2638 26.8403 52.7338 27.0703C52.2038 27.3003 50.7338 25.2803 49.1238 22.7003L50.8738 22.8003L50.8138 22.8803C48.8338 25.3603 46.8638 27.0703 46.3938 26.7003Z" fill="#C7E0FF"/>
<path d="M64.8939 16.2694C64.8139 17.0594 58.2639 17.0194 50.2339 16.6294C42.2039 16.2394 35.6938 15.6194 35.6938 14.8394C35.6938 14.0594 42.2739 13.3794 50.3939 13.7794C58.5139 14.1794 64.9739 15.4894 64.8939 16.2694Z" fill="#C7E0FF"/>
<path d="M36.8437 11.6603C37.1437 11.1503 39.6037 12.0403 42.3237 13.6603L42.4137 13.7103L43.7237 14.4803L42.5637 15.4803C40.1037 17.4803 37.6737 18.4803 37.3637 18.0203C37.0537 17.5603 38.8637 15.8003 41.1837 13.8303L41.3237 15.5703L41.2337 15.5203C38.5137 13.8403 36.5437 12.1703 36.8437 11.6603Z" fill="#C7E0FF"/>
<path d="M61.4337 19.4396C61.0637 19.8996 58.7637 18.6796 56.2837 16.6996L56.2037 16.6396L55.0137 15.6896L56.3036 14.8896C59.0237 13.2096 61.5736 12.5696 61.8036 13.0996C62.0336 13.6296 60.0137 15.0996 57.4337 16.7096L57.5337 14.9596L57.6137 15.0196C60.1037 16.9996 61.8037 18.9696 61.4337 19.4396Z" fill="#C7E0FF"/>
<path d="M39.4538 25.3701C38.9538 24.7501 43.6138 20.1501 49.5738 14.7501C55.5338 9.35012 60.5738 5.17012 61.1338 5.75012C61.6938 6.33012 57.5138 11.4401 51.4938 16.8901C45.4738 22.3401 39.9438 25.9801 39.4538 25.3701Z" fill="#C7E0FF"/>
<path d="M62.5436 8.8401C62.6936 9.4101 60.3236 10.5201 57.2536 11.3101H57.1536L55.6836 11.6901L55.8236 10.1801C56.1136 6.9901 57.1336 4.5801 57.7036 4.7101C58.2736 4.8401 58.2136 7.3401 57.9636 10.3701L56.6336 9.2401H56.7336C59.7836 8.4001 62.3936 8.2201 62.5436 8.8401Z" fill="#C7E0FF"/>
<path d="M39.6938 20.6796C39.6238 20.0896 42.1238 19.3296 45.2738 18.9796H45.3738L46.8838 18.8096L46.5338 20.2796C45.8038 23.3896 44.4538 25.6396 43.9038 25.4396C43.3538 25.2396 43.7638 22.7596 44.4438 19.7996L45.6038 21.1096H45.5038C42.3238 21.4596 39.6938 21.2696 39.6938 20.6796Z" fill="#C7E0FF"/>
<path d="M60.104 26.3894C59.484 26.8894 54.884 22.2294 49.484 16.2694C44.084 10.3094 39.904 5.26941 40.484 4.70941C41.064 4.14941 46.174 8.32943 51.624 14.3494C57.074 20.3694 60.694 25.8994 60.104 26.3894Z" fill="#C7E0FF"/>
<path d="M43.5339 3.29971C44.1039 3.14971 45.2139 5.51972 46.0039 8.58972V8.68973L46.3839 10.1597L44.8739 10.0197C41.6839 9.72972 39.2739 8.70971 39.4039 8.13971C39.5339 7.56971 42.0339 7.62973 45.0639 7.87973L43.9339 9.20972V9.10971C43.1339 6.04971 42.9639 3.43971 43.5339 3.29971Z" fill="#C7E0FF"/>
<path d="M55.4237 26.1802C54.8337 26.2502 54.0737 23.7503 53.7237 20.6003V20.5002L53.5537 18.9902L55.0237 19.3402C58.1337 20.0702 60.3837 21.4202 60.1837 21.9702C59.9837 22.5202 57.5037 22.1102 54.5437 21.4302L55.8537 20.2702V20.3702C56.2037 23.5102 56.0137 26.1202 55.4237 26.1802Z" fill="#C7E0FF"/>
<path d="M21.0538 43.17C21.1038 43.95 18.8238 44.72 16.0538 44.17C15.2575 44.0323 14.4837 43.7867 13.7538 43.44C13.6937 42.6056 13.8343 41.7689 14.1638 41C14.8838 41.07 15.7138 41.21 16.5738 41.36C18.9638 41.84 21.0138 42.37 21.0538 43.17Z" fill="#C7E0FF"/>
<path d="M51.694 45.2397C51.694 45.4697 51.694 45.6897 51.694 45.8897C50.9252 46.0779 50.1428 46.205 49.354 46.2697C46.004 46.5597 43.354 45.6798 43.354 44.9098C43.354 44.1398 45.984 43.6897 49.054 43.4197C49.894 43.3597 50.694 43.2998 51.414 43.2598C51.5891 43.9056 51.6831 44.5707 51.694 45.2397Z" fill="#C7E0FF"/>
</svg>
