<svg width="69" height="66" viewBox="0 0 69 66" fill="none" xmlns="http://www.w3.org/2000/svg">
<path d="M61.1166 14.6006C52.5266 5.60062 39.1166 2.03062 26.8066 3.87062C15.8066 5.50062 2.32654 10.6906 0.566539 30.5706C-1.19346 50.4506 13.4066 63.3206 33.8366 65.5706C54.2666 67.8206 62.8365 55.3206 66.2265 49.0806C69.6165 42.8406 69.7066 23.6606 61.1166 14.6006Z" fill="#EBCE0E"/>
<path d="M67.2368 27.1504C67.2368 27.6804 67.2368 28.2104 67.2368 28.7404C67.2848 32.6364 66.7109 36.5152 65.5367 40.2304C63.2836 46.4626 58.9639 51.7352 53.2968 55.1704C47.6108 58.5632 41.1547 60.4525 34.5367 60.6604C25.7643 61.1695 17.0631 58.8222 9.73676 53.9704C8.10747 52.8447 6.58146 51.5763 5.17676 50.1804C10.8768 58.7804 21.2367 64.1804 33.8167 65.5804C54.2467 67.8204 62.8167 55.3304 66.1967 49.0904C68.3867 45.0604 69.2068 35.7104 67.2368 27.1504Z" fill="#E09F00"/>
<path d="M19.2964 26.34C19.6664 26.34 20.1364 27.4 19.5664 29.15C19.1997 30.2055 18.4972 31.1118 17.5664 31.73C16.4296 32.4219 15.1166 32.7692 13.7864 32.73C12.4373 32.7586 11.1116 32.3748 9.98637 31.63C9.08798 31.0032 8.39272 30.1272 7.98637 29.11C7.35637 27.44 7.66637 26.35 7.98637 26.31C8.30637 26.27 8.82639 27.11 9.68639 28.09C10.14 28.6226 10.6938 29.0609 11.3164 29.38C12.0732 29.7197 12.8971 29.8838 13.7264 29.86C14.5749 29.8904 15.4202 29.7404 16.2064 29.42C16.8155 29.1377 17.3498 28.7164 17.7664 28.19C18.6064 27.24 18.9464 26.32 19.2964 26.34Z" fill="#3F3F5B"/>
<path d="M50.1765 26.3399C50.5765 26.3399 50.9065 27.2399 51.6965 28.2199C52.1131 28.7464 52.6474 29.1676 53.2565 29.4499C54.0427 29.7704 54.888 29.9204 55.7365 29.8899C56.5657 29.9137 57.3896 29.7497 58.1465 29.4099C58.7691 29.0909 59.3229 28.6526 59.7765 28.12C60.6365 27.12 61.0765 26.2799 61.4765 26.3399C61.8765 26.3999 62.1565 27.4699 61.4765 29.1399C61.0701 30.1572 60.3749 31.0332 59.4765 31.6599C58.3484 32.4067 57.019 32.7906 55.6665 32.76C54.3363 32.7992 53.0232 32.4518 51.8865 31.76C50.9557 31.1418 50.2531 30.2355 49.8865 29.18C49.2965 27.4 49.8065 26.3299 50.1765 26.3399Z" fill="#3F3F5B"/>
<path d="M38.1167 33.66C37.8267 33.96 37.2767 33.88 36.6167 33.75C35.8988 33.5741 35.1652 33.4703 34.4267 33.44C32.8167 33.36 31.1267 33.86 30.6467 33.24C30.4067 32.93 30.5967 32.32 31.2467 31.72C32.1559 30.9388 33.3293 30.5346 34.5267 30.59C35.1383 30.5962 35.7416 30.7323 36.2967 30.9892C36.8518 31.246 37.346 31.6178 37.7467 32.08C38.2967 32.74 38.3867 33.36 38.1167 33.66Z" fill="#3F3F5B"/>
<path d="M10.2964 0C8.2264 3.36 2.06641 11.43 1.18641 16.32C0.306412 21.21 2.76641 23.54 7.80641 24.11C12.8464 24.68 15.5564 21.78 16.5264 18.52C17.4964 15.26 14.4664 4.85 10.2964 0Z" fill="#7EB8FF"/>
<path d="M5.0967 17.7598C4.3367 17.6198 4.30672 14.4998 5.83672 11.0998C7.36672 7.69981 9.68671 5.61981 10.2967 6.09981C10.9067 6.57981 9.8067 9.16981 8.4467 12.2698C7.0867 15.3698 5.8867 17.9198 5.0967 17.7598Z" fill="white"/>
</svg>
