<svg width="81" height="63" viewBox="0 0 81 63" fill="none" xmlns="http://www.w3.org/2000/svg">
<path d="M64.514 11.1992C55.924 2.19924 42.514 -1.37074 30.204 0.469256C19.204 2.09926 5.724 7.28924 3.964 27.1692C2.204 47.0492 16.804 59.9192 37.234 62.1692C57.664 64.4192 66.234 51.9193 69.614 45.6792C72.994 39.4392 73.104 20.2192 64.514 11.1992Z" fill="#EBCE0E"/>
<path d="M70.644 23.749C70.644 24.279 70.644 24.809 70.644 25.339C70.692 29.2351 70.1182 33.1138 68.944 36.829C66.6883 43.0628 62.3649 48.3356 56.694 51.769C51.016 55.1535 44.5709 57.0392 37.964 57.249C29.1915 57.7581 20.4903 55.4109 13.164 50.559C11.5346 49.4334 10.0086 48.165 8.604 46.769C14.304 55.369 24.664 60.769 37.244 62.169C57.674 64.409 66.244 51.919 69.624 45.679C71.784 41.659 72.604 32.309 70.644 23.749Z" fill="#E09F00"/>
<path d="M41.7941 29.0986C42.0441 29.3886 41.7941 30.0986 41.0441 30.9586C40.5499 31.4661 39.9626 31.8735 39.3141 32.1586C38.4927 32.5219 37.6022 32.7028 36.7041 32.6886C35.7951 32.6831 34.8992 32.4711 34.0841 32.0686C33.4271 31.7415 32.8501 31.2738 32.3941 30.6986C31.6441 29.6986 31.6041 28.9386 31.9041 28.6986C32.2041 28.4586 32.9041 28.7786 33.6841 29.1286C34.6448 29.5683 35.6876 29.8 36.7441 29.8086C37.8317 29.8057 38.9106 29.6163 39.9341 29.2486C40.8341 28.9786 41.5241 28.7986 41.7941 29.0986Z" fill="#3F3F5B"/>
<path d="M79.5039 17.5488C78.0839 15.9688 75.6839 15.5488 73.5039 15.2388L44.4039 11.0188L43.6339 12.8588C42.129 12.0738 40.5141 11.5209 38.8439 11.2188C37.4882 10.995 36.1073 10.9681 34.7439 11.1388L34.6839 9.33879L7.69389 4.54878C5.69389 4.18878 3.41389 3.85878 1.69389 4.91878C-0.0261148 5.97878 -0.616122 9.05879 1.23388 9.96879C1.58641 10.0896 1.92238 10.2542 2.23388 10.4588C2.84388 10.9788 2.70388 11.9388 2.53388 12.7288C1.30388 18.4388 1.40388 24.8788 4.89388 29.5588C8.89388 34.8988 16.6739 36.4188 22.8939 34.0988C32.1539 30.6688 34.8939 17.0388 34.8939 17.0388C35.8572 17.0507 36.8176 17.1478 37.7639 17.3288C38.9768 17.5403 40.1731 17.8377 41.3439 18.2188C41.3439 18.2188 39.4639 31.2188 47.4439 38.2188C50.2142 40.5006 53.6197 41.8743 57.1978 42.1534C60.776 42.4325 64.3533 41.6034 67.4439 39.7788C72.6739 36.4788 75.0739 30.4288 75.8739 24.6288C75.9839 23.8288 76.1839 22.8788 76.9939 22.6288C77.3837 22.536 77.7831 22.489 78.1839 22.4888C80.3639 22.1688 80.9239 19.0888 79.5039 17.5488ZM13.8139 29.5488C1.71388 26.5488 6.88389 9.22877 6.88389 9.22877L31.4139 13.5488C30.5439 19.6888 25.9039 32.4588 13.8039 29.4688L13.8139 29.5488ZM59.0439 36.9288C46.6239 35.8688 46.3439 22.2788 47.5239 16.1188L72.1439 19.9188C72.1439 19.9188 71.4539 37.9188 59.0339 36.8588L59.0439 36.9288Z" fill="#3F3F5B"/>
<path d="M4.97408 8.38843C4.97408 8.73843 4.23408 8.92843 3.44408 8.70843C2.65408 8.48843 2.16408 7.94842 2.30408 7.62842C2.44408 7.30842 3.09408 7.27842 3.78408 7.47842C4.47408 7.67842 5.02408 8.03843 4.97408 8.38843Z" fill="white"/>
<path d="M74.4337 19.2989C74.4937 18.9489 75.1137 18.7589 75.8337 18.7689C76.5537 18.7789 77.1637 18.9889 77.2137 19.3489C77.2637 19.7089 76.6337 20.0689 75.8137 20.0489C74.9937 20.0289 74.3737 19.6489 74.4337 19.2989Z" fill="white"/>
<path d="M17.8311 20.3825C18.0511 18.5621 17.2293 16.9656 15.9956 16.8165C14.762 16.6675 13.5836 18.0223 13.3636 19.8426C13.1436 21.663 13.9654 23.2595 15.1991 23.4086C16.4327 23.5577 17.6112 22.2028 17.8311 20.3825Z" fill="#3F3F5B"/>
<path d="M62.2217 26.3365C62.442 24.5161 61.6205 22.9195 60.3869 22.7702C59.1532 22.6209 57.9746 23.9755 57.7543 25.7958C57.534 27.6161 58.3555 29.2128 59.5892 29.3621C60.8228 29.5114 62.0015 28.1568 62.2217 26.3365Z" fill="#3F3F5B"/>
</svg>
