<svg width="69" height="63" viewBox="0 0 69 63" fill="none" xmlns="http://www.w3.org/2000/svg">
<path d="M61.1239 11.1992C52.5339 2.19924 39.1239 -1.37074 26.8139 0.469256C15.8139 2.09926 2.33386 7.28924 0.573864 27.1692C-1.18614 47.0492 13.4139 59.9192 33.8439 62.1692C54.2739 64.4192 62.8439 51.9193 66.2339 45.6792C69.6239 39.4392 69.6938 20.2192 61.1239 11.1992Z" fill="#EBCE0E"/>
<path d="M67.2538 23.749C67.2538 24.279 67.2538 24.809 67.2538 25.339C67.3018 29.2351 66.728 33.1138 65.5538 36.829C63.2879 43.0689 58.9497 48.3425 53.2638 51.769C47.5858 55.1535 41.1407 57.0392 34.5338 57.249C25.7614 57.7581 17.0601 55.4109 9.73383 50.559C8.1045 49.4333 6.5785 48.165 5.17383 46.769C10.8738 55.369 21.2338 60.769 33.8138 62.159C54.2438 64.399 62.8138 51.909 66.1938 45.669C68.3938 41.659 69.2138 32.309 67.2538 23.749Z" fill="#E09F00"/>
<path d="M38.1338 30.2284C37.8438 30.5284 37.2938 30.4483 36.6338 30.3183C35.9159 30.1425 35.1823 30.0386 34.4438 30.0084C32.8338 29.9284 31.1438 30.4284 30.6638 29.8084C30.4238 29.4984 30.6138 28.8883 31.2638 28.2883C32.173 27.5072 33.3464 27.103 34.5438 27.1583C35.1554 27.1646 35.7587 27.3007 36.3138 27.5575C36.8689 27.8144 37.3631 28.1862 37.7638 28.6484C38.3238 29.3384 38.3938 29.9584 38.1338 30.2284Z" fill="#3F3F5B"/>
<path d="M15.3669 24.2517C18.6079 20.8328 20.7707 17.6207 20.1975 17.0774C19.6244 16.5341 16.5323 18.8652 13.2913 22.2841C10.0502 25.703 7.88751 28.9151 8.46067 29.4584C9.03383 30.0018 12.1258 27.6706 15.3669 24.2517Z" fill="#3F3F5B"/>
<path d="M19.5647 31.8555C20.2059 31.3944 18.334 27.6947 15.3837 23.592C12.4334 19.4892 9.5219 16.5371 8.88071 16.9981C8.23951 17.4592 10.1114 21.1589 13.0617 25.2617C16.012 29.3645 18.9235 32.3166 19.5647 31.8555Z" fill="#3F3F5B"/>
<path d="M59.4358 29.4533C60.0286 28.9315 58.069 25.7358 55.0588 22.3154C52.0486 18.895 49.1278 16.5452 48.5349 17.067C47.9421 17.5887 49.9017 20.7845 52.9118 24.2049C55.922 27.6253 58.8429 29.9751 59.4358 29.4533Z" fill="#3F3F5B"/>
<path d="M55.2493 25.1379C57.9879 21.0362 59.6755 17.3556 59.0187 16.9171C58.3619 16.4785 55.6094 19.4481 52.8708 23.5498C50.1322 27.6515 48.4446 31.3321 49.1014 31.7706C49.7582 32.2092 52.5107 29.2396 55.2493 25.1379Z" fill="#3F3F5B"/>
</svg>
