<svg width="69" height="66" viewBox="0 0 69 66" fill="none" xmlns="http://www.w3.org/2000/svg">
<path d="M60.8861 14.6006C52.2961 5.60062 38.8861 2.03062 26.5761 3.87062C15.5761 5.50062 2.09607 10.6906 0.336071 30.5706C-1.42393 50.4506 13.1761 63.3206 33.6061 65.5706C54.0361 67.8206 62.6061 55.3206 65.9861 49.0806C69.3661 42.8406 69.4761 23.6606 60.8861 14.6006Z" fill="#EBCE0E"/>
<path d="M67.0163 27.1504C67.0163 27.6804 67.0163 28.2104 67.0163 28.7404C67.0643 32.6364 66.4905 36.5152 65.3163 40.2304C63.0504 46.4703 58.7122 51.7439 53.0263 55.1704C47.3492 58.5583 40.904 60.4475 34.2963 60.6604C25.5238 61.1695 16.8226 58.8222 9.49629 53.9704C7.87047 52.8442 6.34782 51.5759 4.94629 50.1804C10.6463 58.7804 21.0063 64.1804 33.5863 65.5804C54.0163 67.8204 62.5863 55.3304 65.9663 49.0904C68.1563 45.0604 68.9763 35.7104 67.0163 27.1504Z" fill="#E09F00"/>
<path d="M47.9561 31.7603C50.5561 36.5903 44.0061 48.3503 30.1761 47.0003C16.3461 45.6503 15.9261 30.8703 18.5761 28.1703C22.1961 24.4803 28.5761 29.5003 33.6961 29.8803C38.8161 30.2603 45.3961 27.0203 47.9561 31.7603Z" fill="#3F3F5B"/>
<path d="M27.8659 34.5206C24.6654 36.3141 22.1612 39.1318 20.7559 42.5206C23.1868 45.1945 26.5683 46.8099 30.1759 47.0206C40.0859 48.0206 46.2559 42.2306 48.0059 37.1106C46.9267 36.1384 45.7349 35.2991 44.4559 34.6106C41.9078 33.243 39.0638 32.5199 36.172 32.5042C33.2803 32.4885 30.4286 33.1808 27.8659 34.5206Z" fill="#FF2936"/>
<path d="M29.836 1.26993C28.006 0.609931 25.936 1.18993 24.196 2.06993C20.486 3.93993 19.016 9.26993 19.016 9.26993C18.4673 7.76201 17.8192 6.29212 17.076 4.86994C16.4176 3.7703 15.4622 2.8788 14.3196 2.29795C13.1771 1.71709 11.8938 1.47045 10.6174 1.5864C9.34093 1.70234 8.1231 2.17616 7.10393 2.95337C6.08475 3.73059 5.30559 4.77965 4.85605 5.97994C3.55605 9.44994 5.25604 13.3299 7.41604 16.3399C10.41 19.9632 13.6654 23.3624 17.156 26.5099C22.666 23.5099 29.606 17.5099 32.026 11.7199C32.8897 9.91079 33.2753 7.91049 33.1461 5.90993C33.0665 4.90919 32.7165 3.94887 32.1335 3.13161C31.5505 2.31435 30.7564 1.67087 29.836 1.26993Z" fill="#FF2936"/>
<path d="M29.8359 1.27046C29.1591 1.03403 28.4403 0.942045 27.7259 1.00046C28.9503 2.38592 29.6571 4.15275 29.7259 6.00046C30.0359 11.1705 26.5059 16.1405 21.7259 18.2605C17.2159 20.2605 11.4459 19.7805 7.85588 16.3805C7.0682 15.6083 6.37042 14.7495 5.77588 13.8205C6.2344 14.697 6.75576 15.5392 7.33588 16.3405C10.3298 19.9638 13.5852 23.3629 17.0759 26.5105C22.5859 23.5105 29.5259 17.5105 31.9459 11.7105C32.8096 9.90132 33.1952 7.90102 33.0659 5.90047C32.9919 4.91005 32.6531 3.95772 32.0849 3.14317C31.5166 2.32863 30.7398 1.68183 29.8359 1.27046Z" fill="#BF101F"/>
<path d="M64.426 7.57966C62.916 6.34966 60.766 6.21967 58.836 6.47967C54.716 7.02967 51.576 11.5797 51.576 11.5797C51.5519 9.97613 51.4216 8.37597 51.186 6.78967C50.9306 5.53131 50.3247 4.37076 49.4382 3.44195C48.5516 2.51314 47.4206 1.85389 46.1754 1.54026C44.9303 1.22663 43.6219 1.27139 42.4011 1.6694C41.1804 2.0674 40.097 2.80243 39.276 3.78967C36.906 6.63967 37.276 10.8597 38.276 14.4197C39.911 18.8234 41.8663 23.1015 44.126 27.2197C50.306 26.2197 58.846 22.7897 63.026 18.1297C64.4483 16.7083 65.4814 14.9453 66.026 13.0097C66.2722 12.0443 66.2535 11.0305 65.9719 10.0749C65.6903 9.11927 65.1563 8.25727 64.426 7.57966Z" fill="#FF2936"/>
<path d="M64.4263 7.58008C63.8678 7.11496 63.2167 6.77407 62.5163 6.58008C63.2335 8.29302 63.3325 10.2021 62.7962 11.9801C61.3862 16.9801 56.4163 20.5001 51.2563 20.9801C46.3263 21.4101 41.0562 19.0401 38.7762 14.6401C38.2872 13.6523 37.9115 12.6123 37.6562 11.5401C37.7997 12.5176 38.0136 13.4834 38.2962 14.4301C39.9313 18.8338 41.8865 23.1119 44.1463 27.2301C50.3263 26.2301 58.8662 22.8001 63.0462 18.1401C64.4686 16.7187 65.5016 14.9557 66.0462 13.0201C66.2919 12.0515 66.2711 11.0345 65.9859 10.0768C65.7007 9.11916 65.1618 8.25645 64.4263 7.58008Z" fill="#BF101F"/>
</svg>
