<svg width="68" height="63" viewBox="0 0 68 63" fill="none" xmlns="http://www.w3.org/2000/svg">
<path d="M60.6937 11.1993C52.1037 2.19926 38.6937 -1.37075 26.3837 0.469254C15.3837 2.09925 1.90369 7.28926 0.143688 27.1693C-1.61631 47.0493 12.9837 59.9193 33.4137 62.1693C53.8437 64.4193 62.4137 51.9193 65.7937 45.6793C69.1737 39.4393 69.2637 20.2593 60.6937 11.1993Z" fill="#EBCE0E"/>
<path d="M66.8038 23.7891C66.8038 24.3191 66.8038 24.8491 66.8038 25.3791C66.8519 29.2751 66.278 33.1539 65.1039 36.8691C62.8379 43.109 58.4998 48.3826 52.8139 51.8091C47.1358 55.1935 40.6907 57.0792 34.0838 57.2891C25.3114 57.7982 16.6101 55.4509 9.28385 50.5991C7.64413 49.4748 6.10804 48.2065 4.69385 46.8091C10.3938 55.4091 20.7538 60.8091 33.3338 62.2091C53.7638 64.4491 62.3338 51.9591 65.7238 45.7191C67.9438 41.6991 68.7638 32.3591 66.8038 23.7891Z" fill="#E09F00"/>
<path d="M41.9139 29.0394C42.1239 29.3494 41.3339 30.4395 39.5139 31.6595C38.421 32.3831 37.2191 32.9267 35.9539 33.2695C34.3667 33.692 32.7118 33.7973 31.0839 33.5794C29.4396 33.3811 27.8554 32.8394 26.4339 31.9895C25.2719 31.3043 24.2532 30.4011 23.4339 29.3294C22.0939 27.5194 21.8639 26.1395 22.1839 25.9595C22.5039 25.7795 23.4139 26.7295 24.8939 27.9595C26.7456 29.5011 29.0023 30.4767 31.3939 30.7695C33.8174 31.0573 36.2746 30.7519 38.5539 29.8795C40.4539 29.1995 41.6939 28.6994 41.9139 29.0394Z" fill="#3F3F5B"/>
<path d="M13.9888 20.5983C14.2088 18.778 13.387 17.1814 12.1534 17.0324C10.9197 16.8833 9.74129 18.2381 9.52133 20.0585C9.30136 21.8788 10.1231 23.4753 11.3568 23.6244C12.5905 23.7735 13.7689 22.4186 13.9888 20.5983Z" fill="#3F3F5B"/>
<path d="M58.3589 26.4987C58.5789 24.6784 57.7571 23.0818 56.5235 22.9328C55.2898 22.7837 54.1114 24.1385 53.8914 25.9589C53.6715 27.7792 54.4932 29.3757 55.7269 29.5248C56.9606 29.6739 58.139 28.319 58.3589 26.4987Z" fill="#3F3F5B"/>
</svg>
