<svg width="69" height="74" viewBox="0 0 69 74" fill="none" xmlns="http://www.w3.org/2000/svg">
<path d="M61.514 21.7695C52.924 12.7695 39.514 9.19957 27.204 11.0396C16.204 12.6696 2.724 17.8596 0.964 37.7395C-0.796 57.6195 13.804 70.4896 34.234 72.7396C54.664 74.9895 63.234 62.4896 66.614 56.2496C69.994 50.0096 70.104 30.7896 61.514 21.7695Z" fill="#FF2936"/>
<path d="M67.6342 34.3203C67.6342 34.8503 67.6342 35.3803 67.6342 35.9103C67.6823 39.8063 67.1084 43.6851 65.9342 47.4003C63.6811 53.6325 59.3614 58.9051 53.6942 62.3403C48.0093 65.7366 41.5531 67.6294 34.9342 67.8403C26.1617 68.3494 17.4605 66.0022 10.1342 61.1503C8.50489 60.0246 6.97889 58.7563 5.57422 57.3603C11.2742 65.9603 21.6342 71.3603 34.2142 72.7603C54.6442 75.0003 63.2142 62.5103 66.6042 56.2703C68.7842 52.2303 69.6042 42.8403 67.6342 34.3203Z" fill="#BF101F"/>
<path d="M17.2939 34.936C17.3306 33.1024 16.353 31.5959 15.1103 31.571C13.8677 31.5462 12.8306 33.0124 12.7939 34.846C12.7573 36.6796 13.7349 38.1862 14.9775 38.211C16.2202 38.2359 17.2573 36.7696 17.2939 34.936Z" fill="#3F3F5B"/>
<path d="M62.209 36.1714C62.2456 34.3378 61.268 32.8312 60.0254 32.8064C58.7827 32.7815 57.7456 34.2478 57.709 36.0814C57.6723 37.9149 58.6499 39.4215 59.8926 39.4464C61.1352 39.4712 62.1723 38.0049 62.209 36.1714Z" fill="#3F3F5B"/>
<path d="M57.6762 27.1381C59.8636 25.9818 61.3377 24.4785 60.9686 23.7803C60.5995 23.082 58.5271 23.4533 56.3396 24.6096C54.1522 25.7658 52.6781 27.2691 53.0472 27.9674C53.4162 28.6656 55.4887 28.2943 57.6762 27.1381Z" fill="#3F3F5B"/>
<path d="M17.4573 27.0304C17.9196 26.3901 16.7952 24.7886 14.946 23.4534C13.0967 22.1182 11.2227 21.5548 10.7604 22.1951C10.2981 22.8354 11.4225 24.4369 13.2718 25.7721C15.1211 27.1073 16.995 27.6707 17.4573 27.0304Z" fill="#3F3F5B"/>
<path d="M18.784 42.4102C16.004 37.6902 22.074 25.6802 35.954 26.4902C49.834 27.3002 50.824 42.0402 48.284 44.8402C44.814 48.6702 38.204 43.9002 33.104 43.7302C28.004 43.5602 21.524 47.0502 18.784 42.4102Z" fill="#3F3F5B"/>
<path d="M46.5542 35.6595C45.0037 34.414 43.1085 33.674 41.1242 33.5395C36.813 32.9873 32.4528 34.0916 28.9242 36.6295C26.2328 38.6494 24.3387 41.5525 23.5742 44.8295C26.5142 44.8295 30.0642 43.6395 33.1042 43.7395C38.2042 43.9095 44.8142 48.6795 48.2842 44.8495C49.0918 43.6335 49.4783 42.1862 49.3842 40.7295C49.2942 40.4495 49.2142 40.1695 49.1142 39.8895C48.6211 38.2907 47.7419 36.838 46.5542 35.6595Z" fill="#BF101F"/>
<path d="M60.9738 2.84L46.1338 0C45.9138 3 45.2038 4.35999 44.9938 7.39999C47.2125 7.59538 49.3952 8.08639 51.4838 8.85999L42.9238 12.86C42.9238 12.86 48.4638 24.66 50.0538 24.65C51.6438 24.64 49.8438 16.29 49.9938 15.98L59.2938 11.24C60.0315 8.47847 60.5926 5.6728 60.9738 2.84Z" fill="#EBCE0E"/>
</svg>
