<svg width="69" height="63" viewBox="0 0 69 63" fill="none" xmlns="http://www.w3.org/2000/svg">
<path d="M61.514 11.1993C52.924 2.19926 39.514 -1.37075 27.204 0.469254C16.204 2.09925 2.724 7.28926 0.964 27.1693C-0.796 47.0493 13.804 59.9193 34.234 62.1693C54.664 64.4193 63.234 51.9193 66.614 45.6793C69.994 39.4393 70.104 20.2593 61.514 11.1993Z" fill="#EBCE0E"/>
<path d="M67.634 23.7891C67.634 24.3191 67.634 24.8491 67.634 25.3791C67.682 29.2751 67.1081 33.1539 65.934 36.8691C63.6809 43.1013 59.3612 48.3739 53.694 51.8091C48.016 55.1935 41.5708 57.0792 34.964 57.2891C26.1915 57.7982 17.4903 55.4509 10.164 50.5991C8.53465 49.4734 7.00864 48.2051 5.604 46.8091C11.304 55.4091 21.664 60.8091 34.244 62.2091C54.674 64.4491 63.244 51.9591 66.634 45.7191C68.784 41.6991 69.604 32.3591 67.634 23.7891Z" fill="#E09F00"/>
<path d="M14.8087 20.5993C15.0286 18.7789 14.2068 17.1824 12.9732 17.0333C11.7395 16.8843 10.5611 18.2391 10.3412 20.0594C10.1212 21.8798 10.943 23.4763 12.1766 23.6254C13.4103 23.7745 14.5887 22.4196 14.8087 20.5993Z" fill="#3F3F5B"/>
<path d="M59.1788 26.5095C59.3987 24.6891 58.577 23.0926 57.3433 22.9435C56.1096 22.7944 54.9312 24.1493 54.7113 25.9696C54.4913 27.79 55.3131 29.3865 56.5467 29.5355C57.7804 29.6846 58.9588 28.3298 59.1788 26.5095Z" fill="#3F3F5B"/>
<path d="M48.5738 28.4097C51.1738 33.2397 44.6238 44.9997 30.7938 43.6497C16.9638 42.2997 16.5438 27.5197 19.1938 24.8197C22.8138 21.1297 29.1938 26.1497 34.3138 26.5297C39.4338 26.9097 46.0238 23.6597 48.5738 28.4097Z" fill="#3F3F5B"/>
<path d="M28.484 31.1993C25.2836 32.9928 22.7794 35.8105 21.374 39.1993C23.8049 41.8732 27.1865 43.4886 30.794 43.6993C40.704 44.6993 46.874 38.9093 48.624 33.7893C47.5449 32.817 46.3531 31.9777 45.074 31.2893C42.526 29.9218 39.682 29.1986 36.7902 29.1829C33.8984 29.1672 31.0468 29.8595 28.484 31.1993Z" fill="#FF2936"/>
</svg>
