<svg width="85" height="67" viewBox="0 0 85 67" fill="none" xmlns="http://www.w3.org/2000/svg">
<path d="M68.9037 11.1992C60.3137 2.19924 46.9036 -1.37074 34.5936 0.469256C23.5936 2.09926 10.1136 7.28924 8.35365 27.1692C6.59365 47.0492 21.1936 59.9192 41.6236 62.1692C62.0536 64.4192 70.6236 51.9193 74.0036 45.6792C77.3836 39.4392 77.4937 20.2192 68.9037 11.1992Z" fill="#EBCE0E"/>
<path d="M75.0336 23.749C75.0336 24.279 75.0336 24.809 75.0336 25.339C75.0816 29.2351 74.5078 33.1138 73.3336 36.829C71.0677 43.0689 66.7295 48.3425 61.0436 51.769C55.3656 55.1535 48.9205 57.0392 42.3136 57.249C33.5412 57.7581 24.8399 55.4109 17.5136 50.559C15.8843 49.4333 14.3583 48.165 12.9536 46.769C18.6536 55.369 29.0136 60.769 41.5936 62.159C62.0236 64.399 70.5936 51.909 73.9836 45.669C76.1736 41.659 76.9936 32.309 75.0336 23.749Z" fill="#E09F00"/>
<path d="M25.4134 28.1084C22.6334 23.3884 28.7034 11.3785 42.5834 12.1885C56.4634 12.9985 57.4634 27.7384 54.9134 30.5484C51.4434 34.3784 44.8334 29.6085 39.7334 29.4385C34.6334 29.2685 28.1534 32.7584 25.4134 28.1084Z" fill="#3F3F5B"/>
<path d="M53.1836 21.3685C51.6331 20.123 49.7379 19.383 47.7536 19.2485C43.4424 18.6963 39.0822 19.8006 35.5536 22.3385C32.8629 24.3589 30.9689 27.2618 30.2036 30.5385C33.1436 30.5385 36.6936 29.3485 39.7436 29.4485C44.8436 29.6185 51.4536 34.3885 54.9236 30.5585C55.7312 29.3425 56.1177 27.8952 56.0236 26.4385C55.9336 26.1585 55.8536 25.8785 55.7536 25.5985C55.2576 23.9987 54.3749 22.5459 53.1836 21.3685Z" fill="#FF2936"/>
<path d="M18.1838 58.3088C17.69 57.0777 17.51 55.7431 17.6601 54.4252C17.8102 53.1073 18.2857 51.8473 19.0438 50.7588C19.8438 49.6288 20.9238 48.7588 21.7138 47.5888C22.1504 47.0499 22.4338 46.4034 22.5341 45.7171C22.6344 45.0308 22.5479 44.3302 22.2838 43.6888C21.6638 42.5488 20.2838 42.0388 19.5238 40.9688C18.5238 39.5688 18.9538 37.5988 19.8538 36.1388C20.7538 34.6788 22.0638 33.5288 22.9938 32.1388C23.9238 30.7488 24.4338 28.7788 23.5538 27.3088C22.9638 26.3088 21.8638 25.7388 21.1838 24.8088C20.7278 24.0718 20.4763 23.2266 20.4552 22.3601C20.4341 21.4936 20.6442 20.6372 21.0638 19.8788C21.9231 18.3753 23.0598 17.0486 24.4138 15.9688C21.1638 17.9688 18.2538 17.6488 15.6338 15.2988C13.8923 15.5546 12.2253 16.1784 10.7438 17.1288C8.98376 18.3788 7.74376 20.6588 8.42376 22.7088C8.77376 23.8388 9.64376 24.7988 9.77376 25.9788C9.78042 26.6108 9.6579 27.2375 9.41372 27.8204C9.16954 28.4034 8.80885 28.9303 8.35376 29.3688C7.00376 30.9188 5.35376 32.1588 3.99376 33.7488C2.63376 35.3388 1.77376 37.4888 2.38376 39.4588C3.17376 41.9988 6.26376 43.6288 6.23376 46.2988C6.23376 47.7088 5.23375 48.9288 4.43375 50.0488C2.68375 52.3788 1.04376 55.0488 1.05376 57.9388C1.10816 59.7557 1.78898 61.4978 2.98087 62.8701C4.17277 64.2425 5.80244 65.1606 7.59376 65.4688C7.59376 65.4688 18.6838 67.1288 20.7038 64.7988C22.7238 62.4688 19.1938 60.7488 18.1838 58.3088Z" fill="#7EB8FF"/>
<path d="M64.6138 58.3088C65.1076 57.0777 65.2875 55.7431 65.1374 54.4252C64.9873 53.1073 64.5118 51.8473 63.7538 50.7588C62.9538 49.6288 61.8738 48.7588 61.0838 47.5888C60.6472 47.0499 60.3638 46.4034 60.2635 45.7171C60.1632 45.0308 60.2497 44.3302 60.5138 43.6888C61.1338 42.5488 62.5138 42.0388 63.2738 40.9688C64.2738 39.5688 63.8438 37.5988 62.9438 36.1388C62.0438 34.6788 60.7338 33.5288 59.8038 32.1388C58.8738 30.7488 58.3638 28.7788 59.2438 27.3088C59.8338 26.3088 60.9338 25.7388 61.6138 24.8088C62.0698 24.0718 62.3213 23.2266 62.3423 22.3601C62.3634 21.4936 62.1534 20.6372 61.7338 19.8788C60.8745 18.3753 59.7377 17.0486 58.3838 15.9688C61.6338 17.9688 64.5438 17.6488 67.1638 15.2988C68.9053 15.5546 70.5723 16.1784 72.0538 17.1288C73.8138 18.3788 75.0538 20.6588 74.3738 22.7088C74.0238 23.8388 73.1538 24.7988 73.0238 25.9788C73.0171 26.6108 73.1396 27.2375 73.3838 27.8204C73.628 28.4034 73.9887 28.9303 74.4438 29.3688C75.7938 30.9188 77.4438 32.1588 78.8038 33.7488C80.1638 35.3388 81.0238 37.4888 80.4138 39.4588C79.6238 41.9988 76.5338 43.6288 76.5638 46.2988C76.5638 47.7088 77.5638 48.9288 78.3638 50.0488C80.1138 52.3788 81.7538 55.0488 81.7438 57.9388C81.6894 59.7557 81.0086 61.4978 79.8167 62.8701C78.6248 64.2425 76.9951 65.1606 75.2038 65.4688C75.2038 65.4688 64.1138 67.1288 62.0938 64.7988C60.0738 62.4688 63.6138 60.7488 64.6138 58.3088Z" fill="#7EB8FF"/>
<path d="M25.8237 12.5489C26.1937 12.5489 26.6637 13.6089 26.0937 15.3589C25.7271 16.4145 25.0245 17.3208 24.0937 17.939C22.9569 18.6309 21.6439 18.9782 20.3137 18.939C18.9646 18.9675 17.6389 18.5838 16.5137 17.839C15.6153 17.2122 14.9201 16.3362 14.5137 15.3189C13.8837 13.6489 14.1937 12.559 14.5137 12.519C14.8337 12.479 15.3537 13.3189 16.2137 14.2989C16.6673 14.8316 17.2211 15.2699 17.8437 15.589C18.6006 15.9287 19.4245 16.0927 20.2537 16.0689C21.1029 16.0962 21.9482 15.9429 22.7337 15.619C23.3428 15.3367 23.8771 14.9154 24.2937 14.3889C25.0937 13.4589 25.4237 12.5489 25.8237 12.5489Z" fill="#3F3F5B"/>
<path d="M56.6934 12.5489C57.0934 12.5489 57.4234 13.4489 58.2134 14.4289C58.63 14.9553 59.1643 15.3766 59.7734 15.6589C60.5596 15.9794 61.4049 16.1294 62.2534 16.0989C63.0826 16.1227 63.9065 15.9586 64.6634 15.6189C65.286 15.2999 65.8398 14.8615 66.2934 14.3289C67.1534 13.3289 67.5934 12.4889 67.9934 12.5489C68.3934 12.6089 68.6734 13.6789 67.9934 15.3489C67.587 16.3662 66.8918 17.2422 65.9934 17.8689C64.8682 18.6138 63.5425 18.9975 62.1934 18.9689C60.8632 19.0082 59.5501 18.6608 58.4134 17.9689C57.4826 17.3507 56.78 16.4445 56.4134 15.3889C55.8234 13.6189 56.2934 12.5489 56.6934 12.5489Z" fill="#3F3F5B"/>
<path d="M83.4735 25.0487C84.7735 24.1387 84.9935 22.2787 84.6635 20.7287C84.3259 19.3567 83.7072 18.0697 82.8466 16.9491C81.9859 15.8286 80.9021 14.8988 79.6635 14.2188C77.2235 12.8188 73.9335 12.5887 71.1235 12.6987C73.1999 13.7181 74.8704 15.4098 75.8635 17.4988C76.4535 18.7488 76.7835 20.1088 77.2735 21.3988C77.698 22.7237 78.4968 23.8976 79.5735 24.7788C80.1194 25.2143 80.7848 25.4734 81.4815 25.5216C82.1781 25.5698 82.8729 25.4049 83.4735 25.0487Z" fill="#7EB8FF"/>
<path d="M0.693643 19.8191C0.441806 19.3476 0.332318 18.8131 0.378473 18.2805C0.424628 17.748 0.624443 17.2403 0.953646 16.8191C1.50518 16.0336 2.21235 15.37 3.03121 14.8694C3.85006 14.3688 4.76312 14.0419 5.71364 13.9091C7.73217 13.7488 9.7572 14.1249 11.5836 14.9991C10.0105 15.1373 8.53038 15.8034 7.38365 16.8891C6.70365 17.5391 6.17364 18.3091 5.54364 19.0091C4.9494 19.7464 4.15386 20.2953 3.25364 20.5891C2.79857 20.7278 2.31265 20.7286 1.8571 20.5916C1.40154 20.4546 0.996718 20.1858 0.693643 19.8191Z" fill="#7EB8FF"/>
<path d="M10.1934 59.5493C10.1934 59.6293 9.94336 59.6393 9.63336 59.4693C9.18088 59.1948 8.82991 58.7806 8.63336 58.2892C8.3048 57.5204 8.2075 56.6725 8.35336 55.8492C8.57221 54.8115 9.00472 53.8307 9.62336 52.9693C10.2644 52.1046 10.849 51.1993 11.3734 50.2592C11.6131 49.8725 11.7588 49.4349 11.7987 48.9816C11.8387 48.5283 11.7718 48.072 11.6034 47.6493C11.2334 46.8793 10.1034 46.1393 8.85336 44.9393C8.10579 44.2299 7.57812 43.3203 7.33336 42.3192C7.13113 41.2491 7.27473 40.1423 7.74336 39.1592C8.15306 38.2794 8.73052 37.4879 9.44336 36.8293C10.0641 36.2678 10.7333 35.7624 11.4434 35.3192C12.5896 34.6898 13.6485 33.9133 14.5934 33.0092C14.9267 32.6843 15.188 32.293 15.3602 31.8606C15.5325 31.4282 15.6119 30.9644 15.5934 30.4993C15.3112 29.5924 14.8216 28.7638 14.1634 28.0793C13.8139 27.6252 13.5249 27.1277 13.3034 26.5992C13.0975 26.0813 13.0021 25.5262 13.0234 24.9693C13.0538 24.1241 13.3475 23.3095 13.8634 22.6392C14.7334 21.5692 15.5634 21.5192 15.6134 21.6392C15.6634 21.7592 15.1834 22.2292 14.8234 23.1692C14.6098 23.7123 14.5408 24.3015 14.6234 24.8792C14.776 25.614 15.166 26.2781 15.7334 26.7693C16.0634 27.1193 16.4634 27.5093 16.8834 27.9993C17.3634 28.5819 17.7053 29.2657 17.8834 29.9993C18.0662 30.8324 18.0213 31.6994 17.7534 32.5092C17.4949 33.2951 17.095 34.0271 16.5734 34.6692C15.5234 35.8485 14.2993 36.8602 12.9434 37.6692C11.8211 38.2976 10.8991 39.23 10.2834 40.3593C10.0412 40.7941 9.96052 41.3006 10.0557 41.7892C10.1508 42.2778 10.4157 42.7171 10.8034 43.0293C11.6234 43.9493 13.0734 44.8093 13.9134 46.5593C14.2914 47.4096 14.3996 48.3555 14.2234 49.2693C14.074 50.0256 13.7931 50.75 13.3934 51.4092C12.7409 52.406 12.0013 53.3431 11.1834 54.2093C10.6306 54.7963 10.1809 55.4725 9.85336 56.2093C9.64691 56.7645 9.57494 57.3608 9.64336 57.9492C9.79336 58.8992 10.3134 59.3193 10.1934 59.5493Z" fill="white"/>
<path d="M70.5935 58.7687C70.4335 58.6287 70.7235 58.0887 71.0435 57.1387C71.4829 55.8536 71.6064 54.4816 71.4035 53.1387C71.2634 52.2531 70.9581 51.4016 70.5035 50.6287C70.257 50.2148 69.9616 49.832 69.6235 49.4887C69.2635 49.1187 68.8135 48.7287 68.3235 48.2687C67.7473 47.7533 67.2488 47.1572 66.8435 46.4987C66.36 45.6777 66.1368 44.7293 66.2035 43.7787C66.4526 42.1897 67.0317 40.6704 67.9035 39.3187C68.4657 38.4789 68.6741 37.4512 68.4835 36.4587C68.2651 36.057 67.953 35.7139 67.5735 35.4587C66.9278 34.97 66.3814 34.3624 65.9635 33.6687C65.5763 32.9387 65.3737 32.1251 65.3735 31.2987C65.3755 30.6238 65.4629 29.9518 65.6335 29.2987C65.9251 28.2767 66.2825 27.2746 66.7035 26.2987C67.2485 25.0652 67.4257 23.7005 67.2135 22.3687C67.0035 21.4887 66.5335 21.0787 66.6535 20.8987C66.7735 20.7187 67.5035 20.8187 68.2235 21.8987C69.0008 23.4495 69.1512 25.24 68.6435 26.8987C68.4035 27.8987 68.1135 28.8387 67.9535 29.8987C67.7403 30.7725 67.843 31.6935 68.2435 32.4987C68.5354 32.8917 68.8943 33.2302 69.3035 33.4987C70.0421 34.0089 70.6405 34.6967 71.0435 35.4987C71.4324 36.4139 71.5267 37.4275 71.3135 38.3987C71.1347 39.2316 70.842 40.0358 70.4435 40.7887C69.7616 41.8206 69.2673 42.9649 68.9835 44.1687C68.9374 44.5763 69.0177 44.9883 69.2135 45.3487C69.4886 45.8059 69.825 46.2231 70.2135 46.5887C70.6135 47.0187 71.0835 47.4687 71.5235 47.9887C71.965 48.5091 72.338 49.0837 72.6335 49.6987C73.1493 50.7777 73.4321 51.9532 73.4635 53.1487C73.5296 54.8318 73.0413 56.4901 72.0735 57.8687C71.3235 58.5987 70.6935 58.8887 70.5935 58.7687Z" fill="white"/>
</svg>
