<svg width="68" height="63" viewBox="0 0 68 63" fill="none" xmlns="http://www.w3.org/2000/svg">
<path d="M60.6937 11.1992C52.1037 2.19924 38.6937 -1.37074 26.3837 0.469256C15.3837 2.09926 1.90369 7.28924 0.143688 27.1692C-1.61631 47.0492 12.9837 59.9192 33.4137 62.1692C53.8437 64.4192 62.4137 51.9193 65.7937 45.6792C69.1737 39.4392 69.2637 20.2192 60.6937 11.1992Z" fill="#EBCE0E"/>
<path d="M66.8038 23.749C66.8038 24.279 66.8038 24.809 66.8038 25.339C66.8519 29.2351 66.278 33.1138 65.1039 36.829C62.8379 43.0689 58.4998 48.3425 52.8139 51.769C47.1388 55.1518 40.6973 57.0375 34.0938 57.249C25.3203 57.7552 16.6189 55.4044 9.29385 50.549C7.65104 49.4285 6.1116 48.1634 4.69385 46.769C10.3938 55.369 20.7538 60.769 33.3338 62.169C53.7638 64.409 62.3338 51.919 65.7238 45.679C67.9438 41.659 68.7638 32.309 66.8038 23.749Z" fill="#E09F00"/>
<path d="M37.6938 30.2284C37.4038 30.5284 36.8538 30.4483 36.1938 30.3183C35.476 30.1424 34.7423 30.0386 34.0038 30.0084C32.3938 29.9284 30.7038 30.4284 30.2238 29.8084C29.9838 29.4984 30.1738 28.8883 30.8238 28.2883C31.7331 27.5072 32.9064 27.103 34.1039 27.1583C34.7155 27.1646 35.3188 27.3007 35.8739 27.5575C36.429 27.8144 36.9232 28.1862 37.3238 28.6484C37.8838 29.3384 37.9438 29.9584 37.6938 30.2284Z" fill="#3F3F5B"/>
<path d="M50.0439 24.7991L49.9839 24.6191C49.9839 24.6191 50.0039 24.6891 50.0439 24.7991Z" fill="#EBCE0E"/>
<path d="M19.4636 54.6691C18.7036 52.3191 17.2536 49.9391 17.9436 47.5791C18.2736 46.4491 19.0936 45.4191 19.3036 44.2691C19.7536 41.7891 17.3036 39.3391 18.0536 36.8991C18.3936 35.7791 19.3636 34.8291 19.5736 33.6991C19.8536 32.1391 17.5736 32.1191 17.4836 29.9991C17.5395 28.2238 17.877 26.4686 18.4836 24.7991C18.2236 25.4591 17.0636 27.7991 13.3736 27.8891C9.07364 27.9791 8.10364 24.6191 8.10364 24.6191C7.00364 26.2491 5.96364 28.2191 6.93364 29.9091C7.26364 30.4791 7.79364 30.9591 8.10364 31.5291C9.53364 34.1391 5.99364 36.9991 6.57364 39.8191C6.83364 41.0791 7.89364 42.1391 8.34364 43.3591C9.03364 45.2091 8.27363 47.1791 7.72363 49.0691C7.61363 49.4591 7.51364 49.8591 7.44364 50.2691C10.8042 53.8718 14.8955 56.7152 19.4436 58.6091C19.8665 57.3309 19.8735 55.9516 19.4636 54.6691Z" fill="#7EB8FF"/>
<path d="M18.5137 24.7991C18.5137 24.6891 18.5737 24.6191 18.5737 24.6191L18.5137 24.7991Z" fill="#EBCE0E"/>
<path d="M60.7935 49.0789C60.2535 47.1989 59.4935 45.2189 60.1735 43.3689C60.6235 42.1489 61.6835 41.0889 61.9435 39.8289C62.5235 37.0089 58.9435 34.1489 60.4135 31.5389C60.7235 30.9689 61.2635 30.4889 61.5835 29.9189C62.5835 28.2289 61.5135 26.2589 60.4135 24.6289C60.4135 24.6289 59.4135 27.9889 55.1435 27.8989C51.4535 27.8189 50.2835 25.4689 50.0335 24.8089C50.6403 26.4783 50.9778 28.2335 51.0335 30.0089C50.9235 32.1289 48.6635 32.1489 48.9435 33.7089C49.1535 34.8489 50.1235 35.7989 50.4635 36.9089C51.2035 39.3389 48.7735 41.7989 49.2135 44.2789C49.4235 45.4289 50.2135 46.4589 50.5735 47.5889C51.2735 49.9489 49.8135 52.3289 49.0535 54.6789C48.4435 56.5689 48.5935 58.9189 50.0535 60.2589C54.2976 58.5545 58.0702 55.8555 61.0535 52.3889C61.1896 51.2793 61.1012 50.1537 60.7935 49.0789Z" fill="#7EB8FF"/>
<path d="M18.9038 22.9386C19.2738 22.9386 19.7438 23.9986 19.1738 25.7486C18.8071 26.8042 18.1046 27.7104 17.1738 28.3286C16.037 29.0205 14.724 29.3679 13.3938 29.3286C12.0447 29.3572 10.719 28.9734 9.5938 28.2286C8.6954 27.6019 8.00014 26.7259 7.5938 25.7086C6.9638 24.0386 7.2738 22.9486 7.5938 22.9086C7.9138 22.8686 8.43379 23.7086 9.29379 24.6886C9.74738 25.2212 10.3012 25.6595 10.9238 25.9786C11.6806 26.3183 12.5045 26.4824 13.3338 26.4586C14.1823 26.4891 15.0276 26.3391 15.8138 26.0186C16.4229 25.7363 16.9572 25.315 17.3738 24.7886C18.1738 23.8386 18.5038 22.9186 18.9038 22.9386Z" fill="#3F3F5B"/>
<path d="M49.6939 22.9385C50.0939 22.9385 50.4239 23.8385 51.2139 24.8185C51.6305 25.3449 52.1648 25.7662 52.7739 26.0485C53.5593 26.3724 54.4047 26.5258 55.2539 26.4985C56.0831 26.5223 56.907 26.3582 57.6639 26.0185C58.2865 25.6995 58.8403 25.2611 59.2939 24.7285C60.1539 23.7285 60.5939 22.8885 60.9939 22.9485C61.3939 23.0085 61.6739 24.0785 60.9939 25.7485C60.5875 26.7658 59.8923 27.6418 58.9939 28.2685C57.8658 29.0153 56.5363 29.3992 55.1839 29.3685C53.8537 29.4078 52.5406 29.0604 51.4039 28.3685C50.473 27.7503 49.7705 26.8441 49.4039 25.7885C48.8939 23.9985 49.3739 22.9285 49.6939 22.9385Z" fill="#3F3F5B"/>
<path d="M13.4838 51.6588C13.3138 51.7388 12.9938 51.5388 12.6538 50.9988C12.2054 50.2043 11.9872 49.3005 12.0238 48.3888C12.036 47.7374 12.1542 47.0923 12.3738 46.4788C12.6217 45.8708 12.9021 45.2767 13.2138 44.6988C13.3094 44.5061 13.3768 44.3007 13.4138 44.0888C13.4455 43.9608 13.4455 43.8269 13.4138 43.6988C13.1883 43.1936 12.8883 42.725 12.5238 42.3088C11.9522 41.5973 11.5304 40.7775 11.2838 39.8988C11.0608 39.0537 11.0199 38.1709 11.1638 37.3088C11.2918 36.5402 11.5741 35.8054 11.9938 35.1488C12.3638 34.5988 12.6438 34.2488 12.7738 33.9888C12.9894 33.4634 12.9894 32.8742 12.7738 32.3488C12.6338 31.8288 12.5738 31.4588 12.7738 31.3488C12.9738 31.2388 13.2638 31.3488 13.7738 31.7488C14.0796 32.0133 14.3339 32.332 14.5238 32.6888C14.7909 33.2713 14.8509 33.9276 14.6938 34.5488C14.5469 35.1544 14.3322 35.7414 14.0538 36.2988C13.873 36.7309 13.7681 37.191 13.7438 37.6588C13.7203 38.1635 13.788 38.6682 13.9438 39.1488C14.1325 39.6856 14.4171 40.1837 14.7838 40.6188C15.3834 41.3222 15.8296 42.1431 16.0938 43.0288C16.2322 43.5837 16.2322 44.164 16.0938 44.7188C15.9738 45.1637 15.7884 45.5883 15.5438 45.9788C15.1338 46.6488 14.7738 47.0688 14.5438 47.4488C14.326 47.8303 14.1548 48.2365 14.0338 48.6588C13.5538 50.2688 13.8638 51.4988 13.4838 51.6588Z" fill="white"/>
<path d="M56.4735 51.6588C56.3035 51.7388 55.9835 51.5388 55.6435 50.9988C55.1951 50.2043 54.977 49.3005 55.0135 48.3888C55.0257 47.7374 55.1439 47.0923 55.3635 46.4788C55.6114 45.8708 55.8918 45.2767 56.2035 44.6988C56.2991 44.5061 56.3665 44.3007 56.4035 44.0888C56.4349 43.9607 56.4349 43.8269 56.4035 43.6988C56.1781 43.1936 55.8781 42.725 55.5135 42.3088C54.942 41.5973 54.5202 40.7775 54.2735 39.8988C54.0505 39.0537 54.0096 38.1709 54.1535 37.3088C54.2815 36.5402 54.5638 35.8054 54.9835 35.1488C55.3535 34.5988 55.6335 34.2488 55.7635 33.9888C55.9791 33.4634 55.9791 32.8742 55.7635 32.3488C55.6235 31.8288 55.5635 31.4588 55.7635 31.3488C55.9635 31.2388 56.2635 31.3488 56.7635 31.7488C57.0693 32.0133 57.3236 32.332 57.5135 32.6888C57.784 33.2701 57.8475 33.9264 57.6935 34.5488C57.5466 35.1543 57.3319 35.7414 57.0535 36.2988C56.8727 36.7309 56.7678 37.191 56.7435 37.6588C56.72 38.1635 56.7878 38.6682 56.9435 39.1488C57.132 39.6857 57.4167 40.1838 57.7835 40.6188C58.3829 41.3224 58.8291 42.1432 59.0935 43.0288C59.232 43.5837 59.232 44.164 59.0935 44.7188C58.9735 45.1637 58.7882 45.5883 58.5435 45.9788C58.1335 46.6488 57.7735 47.0588 57.5435 47.4488C57.3257 47.8303 57.1545 48.2365 57.0335 48.6588C56.5535 50.2688 56.8535 51.4988 56.4735 51.6588Z" fill="white"/>
</svg>
