<svg width="68" height="73" viewBox="0 0 68 73" fill="none" xmlns="http://www.w3.org/2000/svg">
<path d="M60.6937 20.7695C52.1037 11.7695 38.6937 8.19957 26.3837 10.0396C15.3837 11.6696 1.90369 16.8596 0.143688 36.7395C-1.61631 56.6195 12.9837 69.4896 33.4137 71.7396C53.8437 73.9895 62.4137 61.4896 65.7937 55.2496C69.1737 49.0096 69.2637 29.7896 60.6937 20.7695Z" fill="#FF2936"/>
<path d="M66.8038 33.3203C66.8038 33.8503 66.8038 34.3803 66.8038 34.9103C66.8519 38.8063 66.278 42.6851 65.1039 46.4003C62.8405 52.6387 58.506 57.912 52.8238 61.3403C47.1477 64.7318 40.7025 66.6244 34.0938 66.8403C25.3214 67.3494 16.6201 65.0022 9.29385 60.1503C7.64987 59.0201 6.11039 57.7451 4.69385 56.3403C10.3938 64.9403 20.7538 70.3403 33.3338 71.7403C53.7638 73.9803 62.3338 61.4903 65.7238 55.2503C67.9438 51.2303 68.7638 41.8403 66.8038 33.3203Z" fill="#BF101F"/>
<path d="M43.7537 37.9394C43.9937 38.2194 43.3237 39.3894 41.6337 40.7994C40.622 41.6435 39.4806 42.3189 38.2537 42.7994C36.7199 43.3863 35.0854 43.665 33.4437 43.6194C31.7877 43.5921 30.1558 43.2174 28.6537 42.5194C27.4442 41.9514 26.3546 41.1571 25.4437 40.1794C23.9237 38.5194 23.5537 37.1794 23.8537 36.9594C24.1537 36.7394 25.1537 37.5994 26.7637 38.6394C28.7665 39.9812 31.1135 40.7172 33.5237 40.7595C35.9553 40.7859 38.357 40.2232 40.5237 39.1194C42.3237 38.2494 43.4937 37.6194 43.7537 37.9394Z" fill="#3F3F5B"/>
<path d="M15.3672 33.9663C15.4039 32.1327 14.4262 30.6261 13.1836 30.6013C11.9409 30.5764 10.9039 32.0427 10.8672 33.8763C10.8305 35.7099 11.8081 37.2164 13.0508 37.2413C14.2934 37.2661 15.3305 35.7999 15.3672 33.9663Z" fill="#3F3F5B"/>
<path d="M59.8481 33.6825C59.8772 31.8492 58.8936 30.347 57.6511 30.3272C56.4086 30.3075 55.3777 31.7777 55.3486 33.6111C55.3195 35.4444 56.3031 36.9467 57.5456 36.9664C58.7881 36.9861 59.8189 35.5159 59.8481 33.6825Z" fill="#3F3F5B"/>
<path d="M46.5635 16.3503C50.4835 12.7903 51.3335 4.03032 53.8235 2.83032C56.3135 1.63032 59.7235 11.5503 60.0835 16.2803C60.4435 21.0103 59.0835 27.2803 55.7335 30.6303" fill="#FF2936"/>
<path d="M26.5536 15.2502C23.5536 10.8602 24.8336 2.15019 22.7036 0.400188C20.5736 -1.34981 14.9136 7.48018 13.4436 11.9902C11.9736 16.5002 11.7836 22.9302 14.2736 26.9902" fill="#FF2936"/>
<path d="M56.8368 26.1303C59.0243 24.974 60.4983 23.4707 60.1293 22.7724C59.7602 22.0742 57.6877 22.4455 55.5003 23.6017C53.3128 24.758 51.8387 26.2613 52.2078 26.9596C52.5769 27.6578 54.6494 27.2865 56.8368 26.1303Z" fill="#3F3F5B"/>
<path d="M16.6189 26.006C17.0812 25.3656 15.9569 23.7642 14.1076 22.4289C12.2583 21.0937 10.3844 20.5304 9.92206 21.1707C9.45974 21.811 10.5841 23.4125 12.4334 24.7477C14.2827 26.0829 16.1566 26.6463 16.6189 26.006Z" fill="#3F3F5B"/>
</svg>
