<svg width="72" height="63" viewBox="0 0 72 63" fill="none" xmlns="http://www.w3.org/2000/svg">
<path d="M61.3963 11.6006C52.8063 2.60062 39.3963 -0.969378 27.0863 0.870622C16.0863 2.50062 2.60632 7.69062 0.846325 27.5706C-0.913676 47.4506 13.6863 60.3206 34.1163 62.5706C54.5463 64.8206 63.1163 52.3206 66.4963 46.0806C69.8763 39.8406 69.9863 20.6606 61.3963 11.6006Z" fill="#EBCE0E"/>
<path d="M67.5261 24.1504C67.5261 24.6804 67.5261 25.2104 67.5261 25.7404C67.5741 29.6364 67.0002 33.5152 65.8261 37.2304C63.5601 43.4703 59.222 48.7439 53.5361 52.1704C47.8619 55.5567 41.4204 57.4458 34.8161 57.6604C26.0436 58.1695 17.3424 55.8222 10.0161 50.9704C8.38677 49.8447 6.86076 48.5763 5.45605 47.1804C11.1561 55.7804 21.5161 61.1804 34.0961 62.5804C54.5261 64.8204 63.0961 52.3304 66.4861 46.0904C68.6661 42.0604 69.4861 32.7104 67.5261 24.1504Z" fill="#E09F00"/>
<path d="M37.2964 34.4306C37.4764 34.7706 37.0964 35.4306 36.1164 36.0506C35.5049 36.4284 34.8255 36.6832 34.1164 36.8006C33.2315 36.9534 32.3239 36.9125 31.4564 36.6806C30.5761 36.4537 29.7588 36.0297 29.0664 35.4406C28.4988 34.9535 28.0477 34.3452 27.7464 33.6606C27.2564 32.5306 27.4064 31.7606 27.7464 31.6606C28.0864 31.5606 28.6564 31.9706 29.3664 32.5006C30.1908 33.159 31.145 33.6361 32.1664 33.9006C33.2252 34.1625 34.3212 34.2403 35.4064 34.1306C36.3564 34.0806 37.0764 34.0706 37.2964 34.4306Z" fill="#3F3F5B"/>
<path d="M70.1562 14.4598C68.7562 13.2298 66.6263 13.1198 64.6862 13.0698L38.9263 12.4098L38.4463 14.0898C37.0548 13.5627 35.5915 13.2491 34.1063 13.1598C32.9056 13.1044 31.7033 13.2223 30.5363 13.5098L30.2963 11.9398L6.34625 10.5598C4.53625 10.4598 2.55625 10.3998 1.11625 11.5098C-0.323748 12.6198 -0.463747 15.3498 1.24625 15.9498C1.56509 16.0176 1.87416 16.1251 2.16625 16.2698C2.74625 16.6598 2.72625 17.5098 2.66625 18.2098C2.18625 23.3098 2.93625 28.8998 6.46625 32.6098C10.4663 36.8498 17.4663 37.3598 22.6263 34.6998C30.2963 30.7598 31.2963 18.6598 31.2963 18.6598C32.1379 18.5852 32.9846 18.5852 33.8263 18.6598C34.9044 18.7168 35.9771 18.8505 37.0363 19.0598C37.0363 19.0598 36.7463 30.5498 44.4163 35.8798C47.0593 37.5709 50.1578 38.4096 53.2929 38.2826C56.4281 38.1557 59.4487 37.0691 61.9463 35.1698C66.1563 31.7598 67.6263 26.2398 67.7162 21.1098C67.7162 20.4098 67.8063 19.5598 68.4762 19.2098C68.7989 19.0885 69.1345 19.0047 69.4762 18.9598C71.3962 18.4298 71.5563 15.6598 70.1562 14.4598Z" fill="#1F1F40"/>
<path d="M4.3664 14.2298C4.3664 14.5398 3.7764 14.7798 3.0664 14.6698C2.3564 14.5598 1.8764 14.1398 1.9664 13.8498C2.0564 13.5598 2.6264 13.4698 3.2464 13.5598C3.8664 13.6498 4.3664 13.9198 4.3664 14.2298Z" fill="white"/>
<path d="M65.936 16.5398C65.936 16.2298 66.476 15.9998 67.096 15.9398C67.716 15.8798 68.276 15.9998 68.356 16.2998C68.436 16.5998 67.926 16.9798 67.216 17.0498C66.506 17.1198 65.916 16.8498 65.936 16.5398Z" fill="white"/>
<path d="M62.6562 17.8305C62.2625 17.6071 61.8188 17.4867 61.3662 17.4805H55.0662C52.0396 22.0138 49.0629 26.5771 46.1362 31.1705C47.3352 32.593 48.9818 33.5662 50.8062 33.9305C51.9117 34.1553 53.0459 34.2025 54.1662 34.0705L61.4162 20.2705C61.8296 19.4438 62.2429 18.6305 62.6562 17.8305Z" fill="#3F3F5B"/>
<path d="M16.2362 15.79C13.1296 19.2034 10.1029 22.69 7.15625 26.25C7.80271 27.6572 8.7461 28.9078 9.92162 29.9159C11.0971 30.924 12.4769 31.6657 13.9662 32.09C17.4329 26.85 20.8029 21.5467 24.0762 16.18L16.2362 15.79Z" fill="#3F3F5B"/>
</svg>
