<svg width="69" height="64" viewBox="0 0 69 64" fill="none" xmlns="http://www.w3.org/2000/svg">
<path d="M61.1239 11.7695C52.5339 2.76955 39.1239 -0.800431 26.8139 1.03957C15.8139 2.66957 2.33386 7.85955 0.573864 27.7395C-1.18614 47.6195 13.4139 60.4896 33.8439 62.7396C54.2739 64.9895 62.8439 52.4896 66.2339 46.2496C69.6239 40.0096 69.6938 20.7896 61.1239 11.7695Z" fill="#EBCE0E"/>
<path d="M67.2536 24.3203C67.2536 24.8503 67.2536 25.3803 67.2536 25.9103C67.3016 29.8063 66.7277 33.6851 65.5536 37.4003C63.2877 43.6402 58.9495 48.9138 53.2636 52.3403C47.5904 55.7301 41.1488 57.6227 34.5436 57.8403C25.7711 58.3494 17.0699 56.0022 9.74359 51.1503C8.1143 50.0246 6.5883 48.7562 5.18359 47.3603C10.8836 55.9603 21.2436 61.3603 33.8236 62.7603C54.2536 65.0003 62.8236 52.5103 66.2036 46.2703C68.3936 42.2303 69.2136 32.8403 67.2536 24.3203Z" fill="#E09F00"/>
<path d="M48.0238 26.4599C47.7138 26.2599 47.8239 25.3099 48.7039 24.0799C49.2361 23.3455 49.9177 22.7321 50.7039 22.2799C51.7969 21.6655 53.0694 21.4499 54.3038 21.6699C55.4965 21.9074 56.5864 22.5082 57.4239 23.3899C58.0328 24.018 58.536 24.7408 58.9139 25.5299C59.5239 26.8299 59.6038 27.7199 59.2738 27.9299C58.9438 28.1399 58.2138 27.5899 57.2738 26.7199C56.3338 25.8499 55.1039 24.7199 53.7839 24.4799C52.4523 24.3612 51.1239 24.7387 50.0538 25.5399C49.0638 26.1799 48.3538 26.6899 48.0238 26.4599Z" fill="#3F3F5B"/>
<path d="M19.3538 23.9999C19.0138 24.2299 18.3538 23.7199 17.2738 23.0799C16.2037 22.2787 14.8753 21.9012 13.5438 22.0199C12.2138 22.2299 10.9838 23.4099 10.0538 24.2599C9.12379 25.1099 8.40379 25.6799 8.05379 25.4699C7.70379 25.2599 7.80381 24.3699 8.41381 23.0699C8.79164 22.2808 9.29481 21.5581 9.9038 20.9299C10.7413 20.0482 11.8312 19.4474 13.0238 19.2099C14.2582 18.9899 15.5307 19.2055 16.6238 19.8199C17.4099 20.2722 18.0915 20.8856 18.6238 21.6199C19.5538 22.8399 19.6938 23.8399 19.3538 23.9999Z" fill="#3F3F5B"/>
<path d="M42.894 24.1896C44.514 26.8596 41.134 33.7296 33.234 33.3596C25.334 32.9896 24.664 24.6096 26.094 22.9996C28.044 20.7996 31.834 23.4696 34.734 23.5296C37.634 23.5896 41.304 21.5696 42.894 24.1896Z" fill="#3F3F5B"/>
<path d="M31.5639 26.3397C29.7986 27.4481 28.4568 29.1173 27.7539 31.0797C29.2124 32.5267 31.1795 33.3451 33.2339 33.3597C38.8939 33.6197 42.2339 30.1697 43.0739 27.2097C42.4326 26.6876 41.7309 26.2444 40.9839 25.8897C39.4961 25.1909 37.8599 24.8666 36.218 24.9451C34.5762 25.0235 32.9784 25.5023 31.5639 26.3397Z" fill="#FF2936"/>
<path d="M43.5038 36.7201C43.0238 34.9301 42.3238 33.0401 40.7638 32.0301C40.1342 31.6623 39.4377 31.4235 38.715 31.3273C37.9922 31.2312 37.2576 31.2797 36.5537 31.4701C35.1485 31.8586 33.8172 32.477 32.6138 33.3001C33.4338 33.5201 35.7037 33.7301 35.4637 35.7801C35.323 36.6158 35.2594 37.4627 35.2737 38.3101C35.2737 38.9601 35.8038 39.7301 36.4238 39.5401C37.0438 39.3501 37.3037 37.9201 38.0537 38.1001C38.4637 38.2001 38.5638 38.7201 38.6038 39.1001C38.7638 40.7901 38.2638 43.4301 40.4238 44.5801C42.5838 45.7301 43.8038 42.3401 43.9838 40.9201C44.0906 39.5023 43.9277 38.0772 43.5038 36.7201Z" fill="#7EB8FF"/>
</svg>
